<svg width="30" height="30" viewBox="0 0 30 30" fill="none" xmlns="http://www.w3.org/2000/svg">
<rect x="25.478" y="17.8828" width="3.75" height="6.176" fill="black"/>
<rect x="0.771973" y="17.8828" width="3.75" height="6.176" fill="black"/>
<rect x="6.177" y="17.8447" width="17.647" height="1.875" fill="black"/>
<path d="M15.9431 17.8823H14.0681V13.6603C14.0681 12.3233 14.8581 11.0963 16.0821 10.5353C17.1931 10.0273 17.7911 8.82326 17.5381 7.60826C17.3361 6.63526 16.5471 5.84726 15.5741 5.64526C14.7741 5.47826 13.9901 5.66226 13.3721 6.16326C12.7631 6.66026 12.4141 7.39226 12.4141 8.17726H10.5391C10.5391 6.82626 11.1411 5.56226 12.1891 4.70926C13.2391 3.85726 14.6121 3.53026 15.9561 3.80926C17.6481 4.16026 19.0221 5.53426 19.3741 7.22626C19.8071 9.30326 18.7741 11.3653 16.8631 12.2403C16.3041 12.4963 15.9431 13.0543 15.9431 13.6603V17.8823Z" fill="black"/>
</svg>
