<svg width="273" height="26" viewBox="0 0 273 26" fill="none" xmlns="http://www.w3.org/2000/svg">
<path d="M24.7406 0.585749V10.4638H5.2325V0.585749H0V25.454H5.2325V14.5508H24.7406V25.454H29.9731V0.585749H24.7406Z" fill="black"/>
<path d="M46.4811 15.9354L53.4483 4.84583L60.387 15.9354H46.4811ZM66.3447 25.454H72.2881L56.1214 0.585749H50.6898L34.5515 25.454H40.495L43.8933 20.0224H62.9322L66.3447 25.454Z" fill="black"/>
<path d="M76.8665 0.585749H81.6155L101.806 18.6512V0.585749H107.039V25.454H102.247L82.099 7.37526V25.454H76.8665V0.585749Z" fill="black"/>
<path d="M113.053 17.493H118.499C119.281 20.5948 123.902 21.7531 128.68 21.7531C135.263 21.7531 136.969 20.515 136.969 18.3184C136.969 15.8954 133.77 15.2431 127.826 14.9103C119.736 14.4577 113.878 12.8868 113.878 7.64153C113.878 2.78237 119.053 0 127.044 0C135.675 0 141.249 3.022 141.633 8.18735H136.144C135.661 5.2186 132.206 4.22015 127.116 4.22015C121.698 4.22015 119.153 5.27186 119.153 7.44184C119.153 9.99789 122.878 10.344 127.926 10.7434C137.054 11.4756 142.244 12.5806 142.244 18.0388C142.244 22.898 138.007 25.9998 128.708 25.9998C120.148 26.0265 113.835 22.8713 113.053 17.493Z" fill="black"/>
<path d="M158.084 4.8059H145.116V0.585749H176.312V4.8059H163.302V25.454H158.084V4.8059Z" fill="black"/>
<path d="M193.204 17.4264L179.071 0.585749H185.469L195.821 12.9799L206.143 0.585749H212.542L198.437 17.3865V25.454H193.204V17.4264Z" fill="black"/>
<path d="M216.694 0.585749H221.926V21.1939H241.875V25.454H216.694V0.585749Z" fill="black"/>
<path d="M246.738 0.585749V25.454H273V21.1939H251.956V14.7905H272.673V10.8499H251.956V4.8059H273V0.585749H246.738Z" fill="black"/>
</svg>
