<svg width="158" height="17" viewBox="0 0 158 17" fill="none" xmlns="http://www.w3.org/2000/svg">
<g clip-path="url(#clip0_7651_5396)">
<path fill-rule="evenodd" clip-rule="evenodd" d="M68.2675 10.7558H65.129C65.5778 14.0605 69.2133 16.0027 74.1434 16.0027C79.4974 16.0027 81.9398 14.0938 81.9398 11.1055C81.9398 7.74461 78.9459 7.06858 73.689 6.61575C70.7837 6.36565 68.6372 6.1569 68.6372 4.58285C68.6372 3.24967 70.1085 2.60174 73.2261 2.60174C76.1639 2.60174 78.153 3.21073 78.4312 5.0401H81.5914C81.3746 1.86349 78.1622 0 73.19 0C68.5882 0 65.6047 1.71135 65.6047 4.69928C65.6047 7.92888 68.9753 8.89234 73.6372 9.17255C77.0603 9.37809 78.9073 9.77431 78.9073 11.2665C78.9073 12.6153 77.9258 13.3789 74.1306 13.3789C71.3823 13.3789 68.7175 12.6659 68.2675 10.7558ZM83.598 2.95132H91.0661L91.0661 15.6525H94.0773V2.95132H101.567V0.349976H83.598V2.95132ZM111.303 10.712L103.156 0.349976H106.846L112.808 7.97938L118.75 0.349976H122.439L114.314 10.6899V15.6525H111.303L111.303 10.712ZM127.845 0.349976H124.834V15.6529H139.34V13.0291H127.845V0.349976ZM142.136 0.349976H157.268V2.95132H145.147V6.66787H157.076V9.09459H145.147V13.0291H157.268V15.6529H142.136V0.349976ZM14.2528 6.427V0.349976H17.264V15.6529H14.2528V8.94726H3.01121V15.6529H0V0.349976H3.01121V6.427H14.2528ZM30.7843 2.96738L34.7834 9.79389H26.7739L30.7843 2.96738ZM29.1978 0.349976L19.906 15.6529H23.3323L25.2938 12.3141H36.2595L38.2157 15.6529H41.6416L32.3286 0.349976H29.1978ZM58.6476 11.4711V0.349976H61.6588V15.6529H58.9021L47.2952 4.5314V15.6529H44.284V0.349976H47.0194L58.6476 11.4711Z" fill="black"/>
</g>
<defs>
<clipPath id="clip0_7651_5396">
<rect width="157.268" height="16.0023" fill="white"/>
</clipPath>
</defs>
</svg>
