<svg width="24" height="24" viewBox="0 0 24 24" fill="none" xmlns="http://www.w3.org/2000/svg">
<path fill-rule="evenodd" clip-rule="evenodd" d="M19 20.9999V13.9999H21V20.9999H19Z" fill="#3A3A3E"/>
<path fill-rule="evenodd" clip-rule="evenodd" d="M3 20.9999V13.9999H5V20.9999H3Z" fill="#3A3A3E"/>
<path fill-rule="evenodd" clip-rule="evenodd" d="M12 10.9999C13.6569 10.9999 15 9.65673 15 7.99988C15 6.34302 13.6569 4.99988 12 4.99988C10.3431 4.99988 9 6.34302 9 7.99988C9 9.65673 10.3431 10.9999 12 10.9999ZM12 12.9999C14.7614 12.9999 17 10.7613 17 7.99988C17 5.23845 14.7614 2.99988 12 2.99988C9.23858 2.99988 7 5.23845 7 7.99988C7 10.7613 9.23858 12.9999 12 12.9999Z" fill="#3A3A3E"/>
</svg>
