<svg width="24" height="24" viewBox="0 0 24 24" fill="none" xmlns="http://www.w3.org/2000/svg">
<g clip-path="url(#clip0_13397_39641)">
<path fill-rule="evenodd" clip-rule="evenodd" d="M10.0011 15.9999C13.3148 15.9999 16 13.3139 16 9.99883C16 6.68616 13.3151 3.99988 10.0011 3.99988C6.6863 3.99988 4 6.68685 4 9.99883C4 13.3132 6.68664 15.9999 10.0011 15.9999ZM10.0011 17.9999C14.42 17.9999 18 14.4178 18 9.99883C18 5.58194 14.42 1.99988 10.0011 1.99988C5.58207 1.99988 2 5.58194 2 9.99883C2 14.4178 5.58207 17.9999 10.0011 17.9999Z" fill="#E9E8EE"/>
<path fill-rule="evenodd" clip-rule="evenodd" d="M20.293 21.7069L14.293 15.7069L15.7072 14.2927L21.7072 20.2927L20.293 21.7069Z" fill="#E9E8EE"/>
</g>
<defs>
<clipPath id="clip0_13397_39641">
<rect width="24" height="24" fill="white"/>
</clipPath>
</defs>
</svg>
