<svg width="24" height="24" viewBox="0 0 24 24" fill="none" xmlns="http://www.w3.org/2000/svg">
<g clip-path="url(#clip0_8842_20209)">
<path fill-rule="evenodd" clip-rule="evenodd" d="M10.0011 15.9999C13.3148 15.9999 16 13.314 16 9.99886C16 6.68619 13.3151 3.99991 10.0011 3.99991C6.6863 3.99991 4 6.68688 4 9.99886C4 13.3133 6.68664 15.9999 10.0011 15.9999ZM10.0011 17.9999C14.42 17.9999 18 14.4178 18 9.99886C18 5.58197 14.42 1.99991 10.0011 1.99991C5.58207 1.99991 2 5.58197 2 9.99886C2 14.4178 5.58207 17.9999 10.0011 17.9999Z" fill="#3A3A3E"/>
<path fill-rule="evenodd" clip-rule="evenodd" d="M20.2928 21.707L14.2928 15.707L15.7071 14.2928L21.7071 20.2928L20.2928 21.707Z" fill="#3A3A3E"/>
</g>
<defs>
<clipPath id="clip0_8842_20209">
<rect width="24" height="24" fill="white"/>
</clipPath>
</defs>
</svg>
