<svg width="24" height="24" viewBox="0 0 24 24" fill="none" xmlns="http://www.w3.org/2000/svg">
<path fill-rule="evenodd" clip-rule="evenodd" d="M5 9.99922C5 7.23899 7.23864 5 10.0008 5C12.7626 5 15 7.23866 15 9.99922C15 12.7615 12.7624 15 10.0008 15C7.2388 15 5 12.7612 5 9.99922ZM10.0008 3C6.1344 3 3 6.13409 3 9.99922C3 13.8657 6.13422 17 10.0008 17C13.8676 17 17 13.8654 17 9.99922C17 6.13443 13.8675 3 10.0008 3ZM15.6464 16.3536L19.6464 20.3536L20.3536 19.6464L16.3536 15.6464L15.6464 16.3536Z" fill="#1B1B1F"/>
</svg>
