<svg width="24" height="24" viewBox="0 0 24 24" fill="none" xmlns="http://www.w3.org/2000/svg">
<path d="M16.1493 8.12515L16.1493 8.12514C15.9422 7.76651 15.4838 7.64366 15.1251 7.85071L16.1493 8.12515ZM16.1493 8.12515C16.3563 8.48376 16.2335 8.94227 15.8749 9.14929C15.5162 9.35635 15.0577 9.23347 14.8507 8.87488C14.6437 8.51627 14.7665 8.05774 15.1251 7.85071L16.1493 8.12515Z" fill="#E9E8EE" stroke="#E9E8EE" stroke-width="1.5"/>
<path d="M21.0847 4.49246L21.0822 4.46422L21.0632 4.44315L19.6905 2.91758L19.6687 2.89339L19.6364 2.88992L12.7305 2.14885L12.6899 2.1445L12.6612 2.1734L2.14157 12.7417L2.08143 12.8022L2.14203 12.8621L11.1333 21.7599L11.1933 21.8193L11.2531 21.7598L21.6681 11.3909L21.6963 11.3628L21.6928 11.3231L21.0847 4.49246ZM4.47124 12.8039L13.3834 3.85036L18.9603 4.58053L19.4179 5.03814L19.8969 10.6804L11.2118 19.4151L4.47124 12.8039Z" fill="#E9E8EE" stroke="#E9E8EE" stroke-width="0.17"/>
<mask id="path-3-outside-1_9251_21134" maskUnits="userSpaceOnUse" x="1.20166" y="1.2334" width="21" height="21" fill="black">
<rect fill="white" x="1.20166" y="1.2334" width="21" height="21"/>
<path fill-rule="evenodd" clip-rule="evenodd" d="M19.6272 2.97447L20.9998 4.50003L21.608 11.3307L11.1929 21.6996L2.20166 12.8017L12.7213 2.2334L19.6272 2.97447ZM18.9998 4.50003L13.3526 3.76066L4.35043 12.8047L11.2124 19.5349L19.9847 10.7125L19.4998 5.00003L18.9998 4.50003ZM14.2009 9.24991C13.7868 8.53258 14.0325 7.61535 14.7498 7.20122C15.4672 6.78707 16.3843 7.03284 16.7985 7.75016C17.2127 8.46747 16.967 9.38471 16.2496 9.79885C15.5322 10.213 14.6151 9.96723 14.2009 9.24991Z"/>
</mask>
<path fill-rule="evenodd" clip-rule="evenodd" d="M19.6272 2.97447L20.9998 4.50003L21.608 11.3307L11.1929 21.6996L2.20166 12.8017L12.7213 2.2334L19.6272 2.97447ZM18.9998 4.50003L13.3526 3.76066L4.35043 12.8047L11.2124 19.5349L19.9847 10.7125L19.4998 5.00003L18.9998 4.50003ZM14.2009 9.24991C13.7868 8.53258 14.0325 7.61535 14.7498 7.20122C15.4672 6.78707 16.3843 7.03284 16.7985 7.75016C17.2127 8.46747 16.967 9.38471 16.2496 9.79885C15.5322 10.213 14.6151 9.96723 14.2009 9.24991Z" fill="#D9D8DD"/>
<path d="M20.9998 4.50003L21.1692 4.48496L21.1641 4.42848L21.1262 4.38633L20.9998 4.50003ZM19.6272 2.97447L19.7535 2.86076L19.71 2.81238L19.6453 2.80544L19.6272 2.97447ZM21.608 11.3307L21.7279 11.4512L21.7843 11.395L21.7773 11.3156L21.608 11.3307ZM11.1929 21.6996L11.0734 21.8204L11.1933 21.9391L11.3129 21.82L11.1929 21.6996ZM2.20166 12.8017L2.08117 12.6818L1.96089 12.8027L2.08208 12.9226L2.20166 12.8017ZM12.7213 2.2334L12.7394 2.06437L12.6583 2.05567L12.6008 2.11347L12.7213 2.2334ZM13.3526 3.76066L13.3747 3.5921L13.2914 3.58119L13.2321 3.64073L13.3526 3.76066ZM18.9998 4.50003L19.1201 4.37983L19.0792 4.33897L19.0219 4.33147L18.9998 4.50003ZM4.35043 12.8047L4.22995 12.6847L4.10913 12.8061L4.2314 12.926L4.35043 12.8047ZM11.2124 19.5349L11.0933 19.6563L11.2139 19.7745L11.3329 19.6548L11.2124 19.5349ZM19.9847 10.7125L20.1053 10.8323L20.1608 10.7765L20.1541 10.6981L19.9847 10.7125ZM19.4998 5.00003L19.6692 4.98566L19.664 4.92375L19.6201 4.87983L19.4998 5.00003ZM14.7498 7.20122L14.6649 7.05399L14.6648 7.05399L14.7498 7.20122ZM14.2009 9.24991L14.0537 9.33491L14.2009 9.24991ZM16.7985 7.75016L16.6513 7.83516L16.6513 7.83516L16.7985 7.75016ZM16.2496 9.79885L16.3346 9.94608L16.2496 9.79885ZM21.1262 4.38633L19.7535 2.86076L19.5008 3.08818L20.8735 4.61374L21.1262 4.38633ZM21.7773 11.3156L21.1692 4.48496L20.8305 4.51511L21.4386 11.3458L21.7773 11.3156ZM11.3129 21.82L21.7279 11.4512L21.488 11.2102L11.073 21.5791L11.3129 21.82ZM2.08208 12.9226L11.0734 21.8204L11.3125 21.5787L2.32124 12.6809L2.08208 12.9226ZM12.6008 2.11347L2.08117 12.6818L2.32215 12.9217L12.8417 2.35333L12.6008 2.11347ZM19.6453 2.80544L12.7394 2.06437L12.7031 2.40243L19.609 3.1435L19.6453 2.80544ZM13.3306 3.92922L18.9778 4.6686L19.0219 4.33147L13.3747 3.5921L13.3306 3.92922ZM4.47092 12.9246L13.4731 3.88059L13.2321 3.64073L4.22995 12.6847L4.47092 12.9246ZM11.3314 19.4136L4.46947 12.6833L4.2314 12.926L11.0933 19.6563L11.3314 19.4136ZM19.8642 10.5926L11.0918 19.4151L11.3329 19.6548L20.1053 10.8323L19.8642 10.5926ZM19.3305 5.01441L19.8153 10.7269L20.1541 10.6981L19.6692 4.98566L19.3305 5.01441ZM18.8796 4.62024L19.3796 5.12024L19.6201 4.87983L19.1201 4.37983L18.8796 4.62024ZM14.6648 7.05399C13.8662 7.51507 13.5926 8.53628 14.0537 9.33491L14.3481 9.16491C13.9809 8.52889 14.1988 7.71563 14.8348 7.34844L14.6648 7.05399ZM16.9457 7.66516C16.4846 6.86653 15.4635 6.5929 14.6649 7.05399L14.8348 7.34844C15.4709 6.98124 16.2841 7.19914 16.6513 7.83516L16.9457 7.66516ZM16.3346 9.94608C17.1333 9.48498 17.4068 8.46377 16.9457 7.66515L16.6513 7.83516C17.0185 8.47117 16.8006 9.28443 16.1646 9.65163L16.3346 9.94608ZM14.0537 9.33491C14.5148 10.1335 15.5359 10.4072 16.3346 9.94608L16.1646 9.65163C15.5286 10.0188 14.7153 9.80092 14.3481 9.16491L14.0537 9.33491Z" fill="#D9D8DD" mask="url(#path-3-outside-1_9251_21134)"/>
</svg>
