<svg width="14" height="14" viewBox="0 0 14 14" fill="none" xmlns="http://www.w3.org/2000/svg">
<mask id="path-1-outside-1_13886_26837" maskUnits="userSpaceOnUse" x="-0.532227" y="-0.511719" width="15" height="15" fill="black">
<rect fill="white" x="-0.532227" y="-0.511719" width="15" height="15"/>
<path fill-rule="evenodd" clip-rule="evenodd" d="M12.0848 0.98233L12.9999 1.99937L13.4053 6.55315L6.46197 13.4657L0.467773 7.53385L7.48084 0.488281L12.0848 0.98233ZM11.6666 1.99937L7.90175 1.50645L1.90029 7.5358L6.47493 12.0226L12.3232 6.141L11.9999 2.33271L11.6666 1.99937ZM8.46727 5.16596C8.19117 4.68774 8.35502 4.07625 8.83323 3.80016C9.31148 3.52406 9.9229 3.68791 10.199 4.16612C10.4751 4.64433 10.3113 5.25582 9.83307 5.53192C9.35483 5.80802 8.74337 5.64417 8.46727 5.16596Z"/>
</mask>
<path fill-rule="evenodd" clip-rule="evenodd" d="M12.0848 0.98233L12.9999 1.99937L13.4053 6.55315L6.46197 13.4657L0.467773 7.53385L7.48084 0.488281L12.0848 0.98233ZM11.6666 1.99937L7.90175 1.50645L1.90029 7.5358L6.47493 12.0226L12.3232 6.141L11.9999 2.33271L11.6666 1.99937ZM8.46727 5.16596C8.19117 4.68774 8.35502 4.07625 8.83323 3.80016C9.31148 3.52406 9.9229 3.68791 10.199 4.16612C10.4751 4.64433 10.3113 5.25582 9.83307 5.53192C9.35483 5.80802 8.74337 5.64417 8.46727 5.16596Z" fill="#D9D8DD"/>
<path d="M12.9999 1.99937L13.1692 1.9843L13.1642 1.92782L13.1263 1.88566L12.9999 1.99937ZM12.0848 0.98233L12.2111 0.86862L12.1676 0.820244L12.1029 0.8133L12.0848 0.98233ZM13.4053 6.55315L13.5252 6.67363L13.5817 6.61742L13.5746 6.53808L13.4053 6.55315ZM6.46197 13.4657L6.34239 13.5866L6.46233 13.7052L6.58191 13.5862L6.46197 13.4657ZM0.467773 7.53385L0.347288 7.41392L0.227008 7.53475L0.348195 7.65468L0.467773 7.53385ZM7.48084 0.488281L7.49898 0.319252L7.41789 0.31055L7.36035 0.368351L7.48084 0.488281ZM7.90175 1.50645L7.92382 1.33789L7.84053 1.32699L7.78127 1.38653L7.90175 1.50645ZM11.6666 1.99937L11.7868 1.87916L11.7459 1.83831L11.6886 1.83081L11.6666 1.99937ZM1.90029 7.5358L1.7798 7.41587L1.65899 7.53724L1.78125 7.65716L1.90029 7.5358ZM6.47493 12.0226L6.35589 12.144L6.47643 12.2622L6.59548 12.1425L6.47493 12.0226ZM12.3232 6.141L12.4437 6.26086L12.4992 6.20505L12.4926 6.12662L12.3232 6.141ZM11.9999 2.33271L12.1693 2.31833L12.164 2.25643L12.1201 2.2125L11.9999 2.33271ZM8.83323 3.80016L8.74824 3.65293L8.74823 3.65293L8.83323 3.80016ZM8.46727 5.16596L8.61449 5.08096L8.61449 5.08096L8.46727 5.16596ZM10.199 4.16612L10.0518 4.25113L10.0518 4.25113L10.199 4.16612ZM13.1263 1.88566L12.2111 0.86862L11.9584 1.09604L12.8735 2.11308L13.1263 1.88566ZM13.5746 6.53808L13.1692 1.9843L12.8306 2.01445L13.236 6.56823L13.5746 6.53808ZM6.58191 13.5862L13.5252 6.67363L13.2854 6.43268L6.34202 13.3452L6.58191 13.5862ZM0.348195 7.65468L6.34239 13.5866L6.58154 13.3449L0.587352 7.41301L0.348195 7.65468ZM7.36035 0.368351L0.347288 7.41392L0.588259 7.65378L7.60132 0.608211L7.36035 0.368351ZM12.1029 0.8133L7.49898 0.319252L7.4627 0.657311L12.0666 1.15136L12.1029 0.8133ZM7.87969 1.67502L11.6445 2.16793L11.6886 1.83081L7.92382 1.33789L7.87969 1.67502ZM2.02078 7.65573L8.02224 1.62638L7.78127 1.38653L1.7798 7.41587L2.02078 7.65573ZM6.59396 11.9013L2.01933 7.41443L1.78125 7.65716L6.35589 12.144L6.59396 11.9013ZM12.2026 6.02113L6.35438 11.9028L6.59548 12.1425L12.4437 6.26086L12.2026 6.02113ZM11.8305 2.34708L12.1538 6.15538L12.4926 6.12662L12.1693 2.31833L11.8305 2.34708ZM11.5464 2.11958L11.8797 2.45291L12.1201 2.2125L11.7868 1.87916L11.5464 2.11958ZM8.74823 3.65293C8.1887 3.97597 7.997 4.69143 8.32004 5.25096L8.61449 5.08096C8.38534 4.68405 8.52133 4.17653 8.91823 3.94738L8.74823 3.65293ZM10.3462 4.08112C10.0232 3.5216 9.30779 3.32989 8.74824 3.65293L8.91823 3.94739C9.31516 3.71823 9.82262 3.85421 10.0518 4.25113L10.3462 4.08112ZM9.91807 5.67914C10.4776 5.3561 10.6693 4.64063 10.3462 4.08112L10.0518 4.25113C10.281 4.64803 10.145 5.15554 9.74807 5.38469L9.91807 5.67914ZM8.32004 5.25095C8.64309 5.81048 9.35852 6.00218 9.91807 5.67914L9.74807 5.38469C9.35114 5.61385 8.84365 5.47786 8.61449 5.08096L8.32004 5.25095Z" fill="#D9D8DD" mask="url(#path-1-outside-1_13886_26837)"/>
</svg>
