<svg width="24" height="24" viewBox="0 0 24 24" fill="none" xmlns="http://www.w3.org/2000/svg">
<path fill-rule="evenodd" clip-rule="evenodd" d="M11.9968 5.44184C14.1333 5.44184 14.3841 5.45137 15.2286 5.48948C16.0095 5.52441 16.4317 5.65462 16.7143 5.76578C17.0889 5.91187 17.3556 6.08337 17.6349 6.36284C17.9143 6.64232 18.0889 6.90909 18.2317 7.28384C18.3397 7.56649 18.473 7.98888 18.5079 8.77015C18.546 9.61493 18.5556 9.86582 18.5556 12.0032C18.5556 14.1405 18.546 14.3914 18.5079 15.2362C18.473 16.0175 18.3429 16.4399 18.2317 16.7225C18.0857 17.0973 17.9143 17.364 17.6349 17.6435C17.3556 17.923 17.0889 18.0977 16.7143 18.2406C16.4317 18.3486 16.0095 18.4819 15.2286 18.5169C14.3841 18.555 14.1333 18.5645 11.9968 18.5645C9.86032 18.5645 9.60952 18.555 8.76508 18.5169C7.98413 18.4819 7.56191 18.3517 7.27937 18.2406C6.90476 18.0945 6.6381 17.923 6.35873 17.6435C6.07937 17.364 5.90476 17.0973 5.7619 16.7225C5.65397 16.4399 5.52064 16.0175 5.48571 15.2362C5.44762 14.3914 5.4381 14.1405 5.4381 12.0032C5.4381 9.86582 5.44762 9.61493 5.48571 8.77015C5.52064 7.98888 5.65079 7.56649 5.7619 7.28384C5.90794 6.90909 6.07937 6.64232 6.35873 6.36284C6.6381 6.08337 6.90476 5.90869 7.27937 5.76578C7.56191 5.6578 7.98413 5.52441 8.76508 5.48948C9.60952 5.44819 9.86349 5.44184 11.9968 5.44184ZM11.9968 4C9.8254 4 9.55238 4.00953 8.69841 4.04764C7.84762 4.08575 7.26667 4.22231 6.75873 4.41921C6.23175 4.62247 5.7873 4.89877 5.34286 5.34339C4.89841 5.78801 4.6254 6.23581 4.41905 6.75983C4.22222 7.26796 4.08571 7.84915 4.04762 8.70345C4.00952 9.55459 4 9.82771 4 12C4 14.1723 4.00952 14.4454 4.04762 15.2997C4.08571 16.1509 4.22222 16.732 4.41905 17.2434C4.62222 17.7705 4.89841 18.2152 5.34286 18.6598C5.7873 19.1044 6.23492 19.3775 6.75873 19.584C7.26667 19.7809 7.84762 19.9174 8.70159 19.9555C9.55556 19.9936 9.8254 20.0032 12 20.0032C14.1746 20.0032 14.4444 19.9936 15.2984 19.9555C16.1492 19.9174 16.7302 19.7809 17.2413 19.584C17.7683 19.3807 18.2127 19.1044 18.6571 18.6598C19.1016 18.2152 19.3746 17.7674 19.581 17.2434C19.7778 16.7352 19.9143 16.154 19.9524 15.2997C19.9905 14.4454 20 14.1755 20 12C20 9.82453 19.9905 9.55459 19.9524 8.70028C19.9143 7.84915 19.7778 7.26796 19.581 6.75665C19.3778 6.22946 19.1016 5.78484 18.6571 5.34021C18.2127 4.89559 17.7651 4.62247 17.2413 4.41604C16.7333 4.21913 16.1524 4.08257 15.2984 4.04446C14.4413 4.00953 14.1683 4 11.9968 4ZM11.9968 7.89355C9.7301 7.89355 7.88883 9.73238 7.88883 12.0031C7.88883 14.2739 9.72693 16.1127 11.9968 16.1127C14.2666 16.1127 16.1047 14.2739 16.1047 12.0031C16.1047 9.73238 14.2666 7.89355 11.9968 7.89355ZM11.9968 14.6677C10.5238 14.6677 9.3301 13.4735 9.3301 11.9999C9.3301 10.5263 10.5238 9.33222 11.9968 9.33222C13.4698 9.33222 14.6634 10.5263 14.6634 11.9999C14.6634 13.4735 13.4698 14.6677 11.9968 14.6677ZM17.226 7.7284C17.226 8.2581 16.7966 8.68751 16.2669 8.68751C15.7372 8.68751 15.3078 8.2581 15.3078 7.7284C15.3078 7.1987 15.7372 6.76929 16.2669 6.76929C16.7966 6.76929 17.226 7.1987 17.226 7.7284Z" fill="white"/>
</svg>
