<svg width="21" height="20" viewBox="0 0 21 20" fill="none" xmlns="http://www.w3.org/2000/svg">
<path fill-rule="evenodd" clip-rule="evenodd" d="M10.5001 16.666C14.182 16.666 17.1667 13.6812 17.1667 9.99935C17.1667 6.31745 14.182 3.33268 10.5001 3.33268C6.81818 3.33268 3.83341 6.31745 3.83341 9.99935C3.83341 13.6812 6.81818 16.666 10.5001 16.666ZM10.5001 18.3327C15.1025 18.3327 18.8334 14.6017 18.8334 9.99935C18.8334 5.39698 15.1025 1.66602 10.5001 1.66602C5.89771 1.66602 2.16675 5.39698 2.16675 9.99935C2.16675 14.6017 5.89771 18.3327 10.5001 18.3327ZM11.3334 12.4993V12.1035C11.3221 11.741 11.4214 11.4334 11.6314 11.1806L13.2715 9.34911C13.6347 8.93894 13.8221 8.42622 13.8334 7.81096C13.8221 6.94291 13.4787 6.25372 12.8032 5.74339C12.1504 5.2569 11.37 5.00889 10.4618 4.99935C9.57061 5.00889 8.80432 5.27598 8.16292 5.80062C7.51016 6.32049 7.1781 6.98584 7.16675 7.79665V8.08997H8.83342C8.83342 7.50332 8.99802 7.08838 9.32724 6.84514C9.61673 6.61143 10.1013 6.49458 10.5554 6.49458C10.9244 6.49458 11.2649 6.60666 11.5771 6.83083C11.8836 7.06453 12.0426 7.38647 12.0539 7.79665C12.0539 8.09712 11.9092 8.41906 11.6197 8.76247L10.118 10.5796C9.93637 10.7943 9.81433 11.0089 9.75189 11.2235C9.69513 11.4477 9.66675 11.7005 9.66675 11.9819V12.4993H11.3334ZM11.3334 14.9993V13.3327H9.66675V14.9993H11.3334Z" fill="#3A3A3E"/>
</svg>
