<svg width="378" height="277" viewBox="0 0 378 277" fill="none" xmlns="http://www.w3.org/2000/svg">
<g filter="url(#filter0_f_43036_363933)">
<path d="M371.278 246.5L48.5731 270.181L241.913 269.577L340.811 269.714L371.278 246.5Z" fill="url(#paint0_linear_43036_363933)"/>
</g>
<mask id="path-2-inside-1_43036_363933" fill="white">
<path fill-rule="evenodd" clip-rule="evenodd" d="M269.222 15.8901L311.508 0.499225L368.967 158.368L326.681 173.758L319.499 154.025L302.584 160.181L309.767 179.915L57.4594 271.747L0 113.879L252.307 22.0465L259.49 41.78L276.404 35.6237L269.222 15.8901Z"/>
</mask>
<path fill-rule="evenodd" clip-rule="evenodd" d="M269.222 15.8901L311.508 0.499225L368.967 158.368L326.681 173.758L319.499 154.025L302.584 160.181L309.767 179.915L57.4594 271.747L0 113.879L252.307 22.0465L259.49 41.78L276.404 35.6237L269.222 15.8901Z" fill="#0000F0"/>
<path d="M311.508 0.499225L312.448 0.157205L312.106 -0.782488L311.166 -0.440467L311.508 0.499225ZM269.222 15.8901L268.88 14.9504L267.94 15.2925L268.282 16.2322L269.222 15.8901ZM368.967 158.368L369.31 159.307L370.249 158.965L369.907 158.026L368.967 158.368ZM326.681 173.758L325.742 174.101L326.084 175.04L327.023 174.698L326.681 173.758ZM319.499 154.025L320.439 153.683L320.097 152.743L319.157 153.085L319.499 154.025ZM302.584 160.181L302.242 159.242L301.303 159.584L301.645 160.523L302.584 160.181ZM309.767 179.915L310.109 180.855L311.049 180.513L310.707 179.573L309.767 179.915ZM57.4594 271.747L56.5197 272.089L56.8617 273.029L57.8014 272.687L57.4594 271.747ZM0 113.879L-0.34202 112.939L-1.28171 113.281L-0.939693 114.221L0 113.879ZM252.307 22.0465L253.247 21.7045L252.905 20.7648L251.965 21.1068L252.307 22.0465ZM259.49 41.78L258.55 42.1221L258.892 43.0618L259.832 42.7197L259.49 41.78ZM276.404 35.6237L276.746 36.5634L277.686 36.2213L277.344 35.2817L276.404 35.6237ZM311.166 -0.440467L268.88 14.9504L269.564 16.8298L311.85 1.43892L311.166 -0.440467ZM369.907 158.026L312.448 0.157205L310.568 0.841245L368.028 158.71L369.907 158.026ZM327.023 174.698L369.31 159.307L368.625 157.428L326.339 172.819L327.023 174.698ZM318.559 154.367L325.742 174.101L327.621 173.416L320.439 153.683L318.559 154.367ZM302.926 161.121L319.841 154.965L319.157 153.085L302.242 159.242L302.926 161.121ZM310.707 179.573L303.524 159.839L301.645 160.523L308.827 180.257L310.707 179.573ZM57.8014 272.687L310.109 180.855L309.425 178.975L57.1174 270.808L57.8014 272.687ZM-0.939693 114.221L56.5197 272.089L58.3991 271.405L0.939693 113.537L-0.939693 114.221ZM251.965 21.1068L-0.34202 112.939L0.34202 114.819L252.649 22.9862L251.965 21.1068ZM260.43 41.438L253.247 21.7045L251.368 22.3885L258.55 42.1221L260.43 41.438ZM276.062 34.684L259.148 40.8403L259.832 42.7197L276.746 36.5634L276.062 34.684ZM268.282 16.2322L275.465 35.9657L277.344 35.2817L270.162 15.5481L268.282 16.2322Z" fill="#E9E8EE" mask="url(#path-2-inside-1_43036_363933)"/>
<rect width="36" height="36" transform="translate(291.795 77.9102) rotate(-20)" fill="#0000F0"/>
<g opacity="0.7">
<path d="M89.5348 144.886L73.4942 150.725L74.9307 154.671L86.1788 150.577L87.4512 154.073C86.357 155.014 83.7816 156.622 80.8779 157.679C74.7323 159.915 69.575 158.376 68.0769 154.261C66.6097 150.229 69.5815 145.764 75.7271 143.527C79.251 142.244 83.6364 142.276 86.5842 143.183L86.5611 143.031L86.1193 139.712L86.0704 139.315L86.0062 138.7C83.1404 137.668 78.4423 138.005 74.2701 139.524C65.0799 142.869 60.535 149.503 62.936 156.1C65.3369 162.697 73.0832 164.857 82.2734 161.513C85.8254 160.22 89.403 158.471 91.2172 157.14L93.3928 155.486L93.3517 155.373L92.4796 152.977L89.5348 144.886Z" fill="#F0EFFF"/>
<path d="M120.079 144.4L113.447 140.301C117.558 137.911 118.71 135.289 117.438 131.793C115.725 127.085 111.626 126.438 103.141 129.526L90.4266 134.154L97.9579 154.846L102.807 153.081L100.088 145.611L107.953 142.748L108.263 142.635L116.902 147.951L122.54 145.899L122.289 145.735L120.079 144.4ZM96.6323 135.854L105.259 132.714C109.318 131.237 111.271 131.516 112.082 133.743C112.892 135.97 111.575 137.439 107.516 138.916L98.8896 142.056L96.6323 135.854Z" fill="#F0EFFF"/>
<path d="M124.224 145.286L129.495 143.367L129.547 143.157L129.718 142.137L130.268 137.946L143.292 133.206L146.602 136.247L147.204 136.762L147.312 136.883L152.696 134.923L152.55 134.784L151.502 133.921L133.212 118.581L128.617 120.254L128.402 121.417L124.469 143.856L124.247 145.086L124.224 145.286ZM130.946 133.932L132.37 123.549L140.136 130.587L130.946 133.932Z" fill="#F0EFFF"/>
<path d="M154.945 134.104L147.455 113.525L160.733 108.692C170.036 105.306 176.126 106.953 178.506 113.493C181.051 120.484 177.526 125.886 168.223 129.272L154.945 134.104ZM153.638 115.425L158.419 128.562L166.848 125.494C172.684 123.37 174.887 119.95 173.266 115.496C171.737 111.296 167.902 110.233 162.067 112.357L153.638 115.425Z" fill="#F0EFFF"/>
<path d="M178.22 102.2L185.751 122.892L211.095 113.668L209.658 109.721L189.22 117.16L187.527 112.508L202.975 106.886L201.539 102.939L186.09 108.562L184.562 104.361L204.774 97.0044L203.338 93.0577L178.22 102.2Z" fill="#F0EFFF"/>
<path d="M104.255 190.417C102.723 192.699 98.9484 195.222 94.8608 196.71C88.8561 198.896 83.8885 197.703 82.4315 193.7C80.9848 189.725 84.0234 185.618 90.028 183.432C93.27 182.252 97.8143 182.194 101.364 183.265L101.346 182.952L101.258 179.377L101.217 178.913L101.163 178.326C97.9332 177.171 92.8354 177.462 88.3812 179.083C79.332 182.377 74.8998 188.97 77.3008 195.567C79.7018 202.164 87.3353 204.366 96.3845 201.072C100.923 199.42 105.118 196.648 106.891 194.151L104.255 190.417Z" fill="#F0EFFF"/>
<path d="M124.531 190.828C133.298 187.637 137.256 181.407 134.793 174.641C132.331 167.876 125.182 165.338 116.414 168.529C107.591 171.74 103.717 178.29 106.18 185.056C108.642 191.822 115.707 194.039 124.531 190.828ZM123.156 187.05C117.433 189.133 112.837 187.645 111.254 183.209C109.543 178.596 111.974 174.135 117.697 172.053C123.363 169.99 128.065 171.855 129.719 176.488C131.358 180.904 128.822 184.988 123.156 187.05Z" fill="#F0EFFF"/>
<path d="M138.328 174.632C140.411 180.355 145.866 183.062 154.323 179.984C162.78 176.906 165.219 171.325 163.136 165.603L158.87 153.97L154.106 155.704L157.923 166.191C159.339 170.081 158.215 174.098 152.887 176.037C147.559 177.977 144.116 175.622 142.7 171.732L138.883 161.245L134.09 162.989L138.328 174.632Z" fill="#F0EFFF"/>
<path d="M170.797 173.03L163.265 152.338L175.979 147.711C184.465 144.622 188.563 145.27 190.277 149.978C192.001 154.714 189.277 157.844 180.792 160.932L172.926 163.795L175.645 171.266L170.797 173.03ZM169.471 154.038L171.728 160.24L180.355 157.101C184.414 155.623 185.731 154.154 184.921 151.927C184.11 149.7 182.157 149.421 178.097 150.899L169.471 154.038Z" fill="#F0EFFF"/>
<path d="M212.186 158.924C220.954 155.732 224.912 149.503 222.449 142.737C219.987 135.971 212.837 133.434 204.07 136.625C195.246 139.836 191.373 146.386 193.836 153.152C196.298 159.918 203.363 162.135 212.186 158.924ZM210.811 155.146C205.089 157.229 200.493 155.741 198.91 151.305C197.199 146.692 199.63 142.231 205.353 140.148C211.019 138.086 215.72 139.951 217.375 144.584C219.014 149 216.478 153.084 210.811 155.146Z" fill="#F0EFFF"/>
<path d="M222.042 130.945L229.573 151.637L234.478 149.852L229.03 134.883L249.871 144.25L255.65 142.146L248.118 121.454L243.241 123.229L248.946 138.904L227.821 128.842L222.042 130.945Z" fill="#F0EFFF"/>
</g>
<defs>
<filter id="filter0_f_43036_363933" x="42.573" y="240.5" width="334.705" height="35.6816" filterUnits="userSpaceOnUse" color-interpolation-filters="sRGB">
<feFlood flood-opacity="0" result="BackgroundImageFix"/>
<feBlend mode="normal" in="SourceGraphic" in2="BackgroundImageFix" result="shape"/>
<feGaussianBlur stdDeviation="3" result="effect1_foregroundBlur_43036_363933"/>
</filter>
<linearGradient id="paint0_linear_43036_363933" x1="63.2476" y1="249.128" x2="360.426" y2="242.98" gradientUnits="userSpaceOnUse">
<stop/>
<stop offset="1" stop-opacity="0"/>
</linearGradient>
</defs>
</svg>
