<svg width="37" height="37" viewBox="0 0 37 37" fill="none" xmlns="http://www.w3.org/2000/svg">
<path fill-rule="evenodd" clip-rule="evenodd" d="M26.3346 15.3308C26.3346 21.4085 21.4117 26.3327 15.3366 26.3327C9.26014 26.3327 4.33464 21.4072 4.33464 15.3308C4.33464 9.2588 9.25952 4.33268 15.3366 4.33268C21.4124 4.33268 26.3346 9.25754 26.3346 15.3308ZM24.3289 26.9197C21.846 28.85 18.7259 29.9993 15.3366 29.9993C7.23511 29.9993 0.667969 23.4322 0.667969 15.3308C0.667969 7.23312 7.23511 0.666016 15.3366 0.666016C23.438 0.666016 30.0013 7.23312 30.0013 15.3308C30.0013 18.7211 28.8519 21.8427 26.9214 24.3267L36.7978 34.2031L34.2051 36.7958L24.3289 26.9197Z" fill="#3A3A3E"/>
</svg>
