<svg width="44" height="44" viewBox="0 0 44 44" fill="none" xmlns="http://www.w3.org/2000/svg">
<path fill-rule="evenodd" clip-rule="evenodd" d="M19.3184 8.37571C17.6639 6.58428 15.3387 5.5 12.8346 5.5C7.78179 5.5 3.66797 9.83714 3.66797 15.1643C3.66797 17.8514 4.69643 20.2086 6.3509 22L22.0013 38.5L37.6517 22C39.3062 20.2557 40.3346 17.8043 40.3346 15.1643C40.3346 9.83714 36.2208 5.5 31.168 5.5C28.6192 5.5 26.3387 6.58429 24.6842 8.32857L22.0013 11.1571L19.3184 8.37571ZM22.0013 33.1719L34.9914 19.4767C36.0022 18.411 36.668 16.8617 36.668 15.1643C36.668 11.6771 34.0155 9.16667 31.168 9.16667C29.6985 9.16667 28.3587 9.78265 27.3445 10.8519L22.0236 16.4617L16.6517 10.8927L16.6247 10.8634C15.6281 9.78425 14.2634 9.16667 12.8346 9.16667C9.98706 9.16667 7.33464 11.6771 7.33464 15.1643C7.33464 16.8652 7.97049 18.342 9.02978 19.4962L22.0013 33.1719Z" fill="#D9D8DD"/>
</svg>
