<svg width="37" height="37" viewBox="0 0 37 37" fill="none" xmlns="http://www.w3.org/2000/svg">
<path fill-rule="evenodd" clip-rule="evenodd" d="M26.3346 15.3317C26.3346 21.4094 21.4117 26.3337 15.3366 26.3337C9.26014 26.3337 4.33464 21.4082 4.33464 15.3317C4.33464 9.25978 9.25952 4.33366 15.3366 4.33366C21.4124 4.33366 26.3346 9.25851 26.3346 15.3317ZM24.3289 26.9206C21.846 28.8509 18.7259 30.0003 15.3366 30.0003C7.23511 30.0003 0.667969 23.4332 0.667969 15.3317C0.667969 7.2341 7.23511 0.666992 15.3366 0.666992C23.438 0.666992 30.0013 7.2341 30.0013 15.3317C30.0013 18.722 28.8519 21.8436 26.9214 24.3277L36.7978 34.2041L34.2051 36.7968L24.3289 26.9206Z" fill="#D9D8DD"/>
</svg>
