<svg width="24" height="24" viewBox="0 0 24 24" fill="none" xmlns="http://www.w3.org/2000/svg">
<path fill-rule="evenodd" clip-rule="evenodd" d="M10.5366 4.56857C9.63415 3.59143 8.36585 3 7 3C4.2439 3 2 5.36571 2 8.27143C2 9.73714 2.56098 11.0229 3.46342 12L12 21L20.5366 12C21.439 11.0486 22 9.71143 22 8.27143C22 5.36571 19.7561 3 17 3C15.6098 3 14.3659 3.59143 13.4634 4.54286L12 6.08571L10.5366 4.56857ZM12 18.0938L19.0855 10.6236C19.6369 10.0423 20 9.19729 20 8.27143C20 6.36935 18.5532 5 17 5C16.1985 5 15.4677 5.33599 14.9145 5.91922L12.0121 8.97912L9.08205 5.94145L9.06732 5.9255C8.52368 5.33686 7.77931 5 7 5C5.44678 5 4 6.36935 4 8.27143C4 9.19917 4.34683 10.0047 4.92462 10.6343L12 18.0938Z" fill="#59585D"/>
<path fill-rule="evenodd" clip-rule="evenodd" d="M10.5366 4.56857C9.63415 3.59143 8.36585 3 7 3C4.2439 3 2 5.36571 2 8.27143C2 9.73714 2.56098 11.0229 3.46342 12L12 21L20.5366 12C21.439 11.0486 22 9.71143 22 8.27143C22 5.36571 19.7561 3 17 3C15.6098 3 14.3659 3.59143 13.4634 4.54286L12 6.08571L10.5366 4.56857ZM12 18.0938L19.0855 10.6236C19.6369 10.0423 20 9.19729 20 8.27143C20 6.36935 18.5532 5 17 5C16.1985 5 15.4677 5.33599 14.9145 5.91922L12.0121 8.97912L9.08205 5.94145L9.06732 5.9255C8.52368 5.33686 7.77931 5 7 5C5.44678 5 4 6.36935 4 8.27143C4 9.19917 4.34683 10.0047 4.92462 10.6343L12 18.0938Z" fill="#D9D8DD"/>
</svg>
