<svg width="20" height="20" viewBox="0 0 20 20" fill="none" xmlns="http://www.w3.org/2000/svg">
<path fill-rule="evenodd" clip-rule="evenodd" d="M8.78045 3.80702C8.02841 2.99273 6.9715 2.49988 5.83329 2.49988C3.53654 2.49988 1.66663 4.47131 1.66663 6.89274C1.66663 8.11416 2.13411 9.18559 2.88614 9.99988L9.99996 17.4999L17.1138 9.99988C17.8658 9.20702 18.3333 8.09274 18.3333 6.89274C18.3333 4.47131 16.4634 2.49988 14.1666 2.49988C13.0081 2.49988 11.9715 2.99274 11.2195 3.78559L9.99996 5.07131L8.78045 3.80702ZM9.99996 15.078L15.9045 8.85291C16.364 8.3685 16.6666 7.66429 16.6666 6.89274C16.6666 5.30767 15.461 4.16654 14.1666 4.16654C13.4987 4.16654 12.8897 4.44654 12.4287 4.93256L10.0101 7.48248L7.56833 4.95108L7.55606 4.9378C7.10303 4.44726 6.48272 4.16654 5.83329 4.16654C4.53894 4.16654 3.33329 5.30767 3.33329 6.89274C3.33329 7.66586 3.62232 8.33716 4.10381 8.86181L9.99996 15.078Z" fill="#D9D8DD"/>
</svg>
