<svg width="45" height="44" viewBox="0 0 45 44" fill="none" xmlns="http://www.w3.org/2000/svg">
<path fill-rule="evenodd" clip-rule="evenodd" d="M19.8145 8.37571C18.16 6.58428 15.8348 5.5 13.3307 5.5C8.27788 5.5 4.16406 9.83714 4.16406 15.1643C4.16406 17.8514 5.19252 20.2086 6.84699 22L22.4974 38.5L38.1478 22C39.8023 20.2557 40.8307 17.8043 40.8307 15.1643C40.8307 9.83714 36.7169 5.5 31.6641 5.5C29.1153 5.5 26.8348 6.58429 25.1803 8.32857L22.4974 11.1571L19.8145 8.37571ZM22.4974 33.1719L35.4875 19.4767C36.4983 18.411 37.1641 16.8617 37.1641 15.1643C37.1641 11.6771 34.5116 9.16667 31.6641 9.16667C30.1946 9.16667 28.8548 9.78265 27.8406 10.8519L22.5197 16.4617L17.1478 10.8927L17.1208 10.8634C16.1241 9.78425 14.7595 9.16667 13.3307 9.16667C10.4832 9.16667 7.83073 11.6771 7.83073 15.1643C7.83073 16.8652 8.46658 18.342 9.52587 19.4962L22.4974 33.1719Z" fill="#D9D8DD"/>
</svg>
