<svg width="64" height="64" viewBox="0 0 64 64" fill="none" xmlns="http://www.w3.org/2000/svg">
<g clip-path="url(#clip0_63727_34177)">
<path d="M43.9988 22.2648V17.4648C43.9988 10.8408 38.6228 5.46484 31.9988 5.46484C25.3748 5.46484 19.9988 10.8408 19.9988 17.4648V22.2648H12.7988V55.8648H51.1988V22.2648H43.9988ZM24.7988 17.4648C24.7988 13.4808 28.0148 10.2648 31.9988 10.2648C35.9828 10.2648 39.1988 13.4808 39.1988 17.4648V22.2648H24.7988V17.4648ZM46.3988 51.0648H17.5988V27.0648H46.3988V51.0648ZM31.9988 43.8648C34.6388 43.8648 36.7988 41.7048 36.7988 39.0648C36.7988 36.4248 34.6388 34.2648 31.9988 34.2648C29.3588 34.2648 27.1988 36.4248 27.1988 39.0648C27.1988 41.7048 29.3588 43.8648 31.9988 43.8648Z" fill="#0000F0"/>
</g>
<defs>
<clipPath id="clip0_63727_34177">
<rect width="64" height="64" fill="white"/>
</clipPath>
</defs>
</svg>
