<svg width="12" height="10" viewBox="0 0 12 10" fill="none" xmlns="http://www.w3.org/2000/svg">
<path fill-rule="evenodd" clip-rule="evenodd" d="M1.66612 2.73481C2.49235 1.67903 3.87025 0.599609 6 0.599609C8.12975 0.599609 9.50765 1.67903 10.3339 2.73481C10.7444 3.25931 11.0225 3.78123 11.1983 4.17135C11.2865 4.36709 11.3498 4.53156 11.3916 4.64919C11.4125 4.70807 11.4282 4.75538 11.4389 4.7892C11.4443 4.80611 11.4485 4.81967 11.4514 4.82963L11.4551 4.84185L11.4563 4.84589L11.4567 4.84738L11.457 4.84851L11.5 4.99961L11.4569 5.15123C11.4569 5.15123 11.457 5.15071 10.9303 4.99961L11.4569 5.15123L11.4567 5.15184L11.4563 5.15333L11.4556 5.15541L11.4551 5.15736L11.4533 5.16331L11.4514 5.16959C11.4485 5.17955 11.4443 5.1931 11.4389 5.21002C11.4282 5.24384 11.4125 5.29115 11.3916 5.35002C11.3498 5.46766 11.2865 5.63212 11.1983 5.82786C11.0225 6.21799 10.7444 6.7399 10.3339 7.26441C9.50765 8.32018 8.12975 9.39961 6 9.39961C3.87025 9.39961 2.49235 8.32018 1.66612 7.26441C1.25565 6.7399 0.977506 6.21799 0.801723 5.82786C0.713527 5.63212 0.650248 5.46766 0.608402 5.35002C0.58746 5.29115 0.571827 5.24384 0.56108 5.21002C0.555704 5.1931 0.551546 5.17955 0.548551 5.16959L0.544923 5.15736L0.544171 5.15478L0.54375 5.15333L0.543322 5.15184L0.542998 5.15071L0.5 4.99961L0.543147 4.84799C0.543147 4.84799 0.542998 4.84851 1.06973 4.99961L0.543147 4.84799L0.543322 4.84738L0.543751 4.84589L0.544923 4.84185L0.548551 4.82963C0.551546 4.81967 0.555704 4.80611 0.56108 4.7892C0.571827 4.75538 0.58746 4.70807 0.608402 4.64919C0.650248 4.53156 0.713527 4.36709 0.801723 4.17135C0.977506 3.78123 1.25565 3.25931 1.66612 2.73481ZM1.5 4.99961C1.53325 5.09164 1.58338 5.22052 1.65275 5.37448C1.80223 5.70623 2.03765 6.14681 2.38042 6.58481C3.06066 7.45403 4.29509 8.49951 6 8.49951C7.70491 8.49951 8.93934 7.45403 9.61958 6.58481C9.96235 6.14681 10.1978 5.70623 10.3473 5.37448C10.4166 5.22052 10.4667 5.09164 10.5 4.99961C10.4667 4.90758 10.4166 4.7787 10.3473 4.62474C10.1978 4.29299 9.96235 3.8524 9.61958 3.41441C8.93934 2.54518 7.70491 1.49951 6 1.49951C4.29509 1.49951 3.06066 2.54518 2.38042 3.41441C2.03765 3.8524 1.80223 4.29299 1.65275 4.62474C1.58338 4.7787 1.53325 4.90758 1.5 4.99961ZM6 6.99951C7.10457 6.99951 8 6.10408 8 4.99951C8 3.89494 7.10457 2.99951 6 2.99951C4.89543 2.99951 4 3.89494 4 4.99951C4 6.10408 4.89543 6.99951 6 6.99951ZM7 4.99951C7 5.5518 6.55228 5.99951 6 5.99951C5.44772 5.99951 5 5.5518 5 4.99951C5 4.44723 5.44772 3.99951 6 3.99951C6.55228 3.99951 7 4.44723 7 4.99951Z" fill="#3A3A3E"/>
</svg>
