<svg width="24" height="24" viewBox="0 0 24 24" fill="none" xmlns="http://www.w3.org/2000/svg">
<path fill-rule="evenodd" clip-rule="evenodd" d="M16 9.99895C16 13.3141 13.3148 16 10.0011 16C6.68664 16 4 13.3134 4 9.99895C4 6.68697 6.6863 4 10.0011 4C13.3151 4 16 6.68628 16 9.99895ZM14.906 16.3202C13.5516 17.3731 11.8498 18 10.0011 18C5.58207 18 2 14.4179 2 9.99895C2 5.58206 5.58207 2 10.0011 2C14.42 2 18 5.58206 18 9.99895C18 11.8482 17.3731 13.5509 16.3201 14.9058L21.7072 20.293L20.293 21.7072L14.906 16.3202Z" fill="#D9D8DD"/>
</svg>
