<svg width="20" height="20" viewBox="0 0 20 20" fill="none" xmlns="http://www.w3.org/2000/svg">
<path fill-rule="evenodd" clip-rule="evenodd" d="M13.3327 4.99984C13.3327 4.08317 14.0827 3.33317 14.9993 3.33317C15.916 3.33317 16.666 4.08317 16.666 4.99984C16.666 5.9165 15.916 6.6665 14.9993 6.6665C14.0827 6.6665 13.3327 5.9165 13.3327 4.99984ZM11.666 4.99984C11.666 5.23889 11.6915 5.47228 11.7399 5.69741L7.50969 7.81279C6.89742 7.11142 5.99782 6.6665 4.99935 6.6665C3.16602 6.6665 1.66602 8.1665 1.66602 9.99984C1.66602 11.8332 3.16602 13.3332 4.99935 13.3332C5.99781 13.3332 6.89741 12.8883 7.50967 12.1869L11.7401 14.3016C11.6916 14.5269 11.666 14.7605 11.666 14.9998C11.666 16.8332 13.166 18.3332 14.9993 18.3332C16.8327 18.3332 18.3327 16.8332 18.3327 14.9998C18.3327 13.1665 16.8327 11.6665 14.9993 11.6665C14.0009 11.6665 13.1014 12.1114 12.4891 12.8127L8.25863 10.698C8.30713 10.4727 8.33268 10.2391 8.33268 9.99984C8.33268 9.76059 8.30714 9.52701 8.25864 9.30171L12.4886 7.18645C13.1009 7.88807 14.0007 8.33317 14.9993 8.33317C16.8327 8.33317 18.3327 6.83317 18.3327 4.99984C18.3327 3.1665 16.8327 1.6665 14.9993 1.6665C13.166 1.6665 11.666 3.1665 11.666 4.99984ZM13.3327 14.9998C13.3327 14.0832 14.0827 13.3332 14.9993 13.3332C15.916 13.3332 16.666 14.0832 16.666 14.9998C16.666 15.9165 15.916 16.6665 14.9993 16.6665C14.0827 16.6665 13.3327 15.9165 13.3327 14.9998ZM4.99935 8.33317C4.08268 8.33317 3.33268 9.08317 3.33268 9.99984C3.33268 10.9165 4.08268 11.6665 4.99935 11.6665C5.91602 11.6665 6.66602 10.9165 6.66602 9.99984C6.66602 9.08317 5.91602 8.33317 4.99935 8.33317Z" fill="#3A3A3E"/>
</svg>
