<svg width="24" height="24" viewBox="0 0 24 24" fill="none" xmlns="http://www.w3.org/2000/svg">
<g clip-path="url(#clip0_9251_21081)">
<path d="M14.7501 7.20118C14.0328 7.61532 13.787 8.53255 14.2012 9.24987C14.6153 9.9672 15.5325 10.213 16.2499 9.79882C16.9672 9.38467 17.213 8.46744 16.7988 7.75013C16.3846 7.0328 15.4675 6.78703 14.7501 7.20118Z" fill="#3A3A3E"/>
<path d="M21.0847 4.49246L21.0822 4.46422L21.0632 4.44315L19.6905 2.91758L19.6687 2.89339L19.6364 2.88992L12.7305 2.14885L12.6899 2.1445L12.6612 2.1734L2.14157 12.7417L2.08143 12.8022L2.14203 12.8621L11.1333 21.7599L11.1933 21.8193L11.2531 21.7598L21.6681 11.3909L21.6963 11.3628L21.6928 11.3231L21.0847 4.49246ZM4.47124 12.8039L13.3834 3.85036L18.9603 4.58053L19.4179 5.03814L19.8969 10.6804L11.2118 19.4151L4.47124 12.8039Z" fill="#3A3A3E" stroke="#3A3A3E" stroke-width="0.17"/>
</g>
<defs>
<clipPath id="clip0_9251_21081">
<rect width="24" height="24" fill="white"/>
</clipPath>
</defs>
</svg>
