<svg width="16" height="16" viewBox="0 0 16 16" fill="none" xmlns="http://www.w3.org/2000/svg">
<g clip-path="url(#clip0_27166_16329)">
<path d="M10.5523 5.54307L10.5523 5.54307C10.4833 5.42355 10.3305 5.38262 10.211 5.45161L10.5523 5.54307ZM10.5523 5.54307C10.6213 5.66258 10.5803 5.81535 10.4609 5.88432C10.3413 5.95333 10.1886 5.91237 10.1196 5.79289C10.0506 5.67338 10.0915 5.5206 10.211 5.45162L10.5523 5.54307Z" fill="#E9E8EE" stroke="#E9E8EE" stroke-width="1.5"/>
<path d="M14.09 2.99303L14.0874 2.96479L14.0685 2.94372L13.1534 1.92667L13.1316 1.90248L13.0992 1.89901L8.4953 1.40496L8.45476 1.40061L8.42599 1.42951L1.41293 8.47508L1.35279 8.5355L1.41338 8.59546L7.40757 14.5273L7.46754 14.5867L7.52733 14.5272L14.4707 7.61459L14.4989 7.58649L14.4954 7.54681L14.09 2.99303ZM3.02634 8.53627L8.93776 2.59739L12.6323 3.0811L12.9232 3.37204L13.2405 7.11017L7.47957 12.904L3.02634 8.53627Z" fill="#E9E8EE" stroke="#E9E8EE" stroke-width="0.17"/>
<mask id="path-3-outside-1_27166_16329" maskUnits="userSpaceOnUse" x="0.46875" y="0.488281" width="15" height="15" fill="black">
<rect fill="white" x="0.46875" y="0.488281" width="15" height="15"/>
<path fill-rule="evenodd" clip-rule="evenodd" d="M13.0857 1.98233L14.0009 2.99937L14.4063 7.55315L7.46294 14.4657L1.46875 8.53385L8.48181 1.48828L13.0857 1.98233ZM12.6675 2.99937L8.90273 2.50645L2.90127 8.5358L7.4759 13.0226L13.3241 7.141L13.0009 3.33271L12.6675 2.99937ZM9.46825 6.16596C9.19215 5.68774 9.35599 5.07625 9.83421 4.80016C10.3125 4.52406 10.9239 4.68791 11.2 5.16612C11.4761 5.64433 11.3123 6.25582 10.834 6.53192C10.3558 6.80802 9.74434 6.64417 9.46825 6.16596Z"/>
</mask>
<path fill-rule="evenodd" clip-rule="evenodd" d="M13.0857 1.98233L14.0009 2.99937L14.4063 7.55315L7.46294 14.4657L1.46875 8.53385L8.48181 1.48828L13.0857 1.98233ZM12.6675 2.99937L8.90273 2.50645L2.90127 8.5358L7.4759 13.0226L13.3241 7.141L13.0009 3.33271L12.6675 2.99937ZM9.46825 6.16596C9.19215 5.68774 9.35599 5.07625 9.83421 4.80016C10.3125 4.52406 10.9239 4.68791 11.2 5.16612C11.4761 5.64433 11.3123 6.25582 10.834 6.53192C10.3558 6.80802 9.74434 6.64417 9.46825 6.16596Z" fill="#D9D8DD"/>
<path d="M14.0009 2.99937L14.1702 2.9843L14.1652 2.92782L14.1272 2.88566L14.0009 2.99937ZM13.0857 1.98233L13.2121 1.86862L13.1686 1.82024L13.1039 1.8133L13.0857 1.98233ZM14.4063 7.55315L14.5262 7.67363L14.5827 7.61742L14.5756 7.53808L14.4063 7.55315ZM7.46294 14.4657L7.34336 14.5866L7.4633 14.7052L7.58288 14.5862L7.46294 14.4657ZM1.46875 8.53385L1.34826 8.41392L1.22798 8.53475L1.34917 8.65468L1.46875 8.53385ZM8.48181 1.48828L8.49995 1.31925L8.41886 1.31055L8.36133 1.36835L8.48181 1.48828ZM8.90273 2.50645L8.9248 2.33789L8.84151 2.32699L8.78225 2.38653L8.90273 2.50645ZM12.6675 2.99937L12.7878 2.87916L12.7469 2.83831L12.6896 2.83081L12.6675 2.99937ZM2.90127 8.5358L2.78078 8.41587L2.65997 8.53724L2.78223 8.65716L2.90127 8.5358ZM7.4759 13.0226L7.35686 13.144L7.4774 13.2622L7.59645 13.1425L7.4759 13.0226ZM13.3241 7.141L13.4447 7.26086L13.5002 7.20505L13.4935 7.12662L13.3241 7.141ZM13.0009 3.33271L13.1703 3.31833L13.165 3.25643L13.1211 3.2125L13.0009 3.33271ZM9.83421 4.80016L9.74921 4.65293L9.74921 4.65293L9.83421 4.80016ZM9.46825 6.16596L9.61547 6.08096L9.61547 6.08096L9.46825 6.16596ZM11.2 5.16612L11.0528 5.25113L11.0528 5.25113L11.2 5.16612ZM14.1272 2.88566L13.2121 1.86862L12.9594 2.09604L13.8745 3.11308L14.1272 2.88566ZM14.5756 7.53808L14.1702 2.9843L13.8315 3.01445L14.2369 7.56823L14.5756 7.53808ZM7.58288 14.5862L14.5262 7.67363L14.2863 7.43268L7.343 14.3452L7.58288 14.5862ZM1.34917 8.65468L7.34336 14.5866L7.58252 14.3449L1.58833 8.41301L1.34917 8.65468ZM8.36133 1.36835L1.34826 8.41392L1.58924 8.65378L8.6023 1.60821L8.36133 1.36835ZM13.1039 1.8133L8.49995 1.31925L8.46368 1.65731L13.0676 2.15136L13.1039 1.8133ZM8.88066 2.67502L12.6455 3.16793L12.6896 2.83081L8.9248 2.33789L8.88066 2.67502ZM3.02175 8.65573L9.02322 2.62638L8.78225 2.38653L2.78078 8.41587L3.02175 8.65573ZM7.59494 12.9013L3.02031 8.41443L2.78223 8.65716L7.35686 13.144L7.59494 12.9013ZM13.2036 7.02113L7.35535 12.9028L7.59645 13.1425L13.4447 7.26086L13.2036 7.02113ZM12.8315 3.34708L13.1547 7.15538L13.4935 7.12662L13.1703 3.31833L12.8315 3.34708ZM12.5473 3.11958L12.8807 3.45291L13.1211 3.2125L12.7878 2.87916L12.5473 3.11958ZM9.74921 4.65293C9.18968 4.97597 8.99798 5.69143 9.32102 6.25096L9.61547 6.08096C9.38632 5.68405 9.5223 5.17653 9.91921 4.94738L9.74921 4.65293ZM11.3472 5.08112C11.0242 4.5216 10.3088 4.32989 9.74921 4.65293L9.9192 4.94739C10.3161 4.71823 10.8236 4.85421 11.0528 5.25113L11.3472 5.08112ZM10.919 6.67914C11.4786 6.3561 11.6703 5.64063 11.3472 5.08112L11.0528 5.25113C11.2819 5.64803 11.146 6.15554 10.7491 6.38469L10.919 6.67914ZM9.32102 6.25095C9.64406 6.81048 10.3595 7.00218 10.919 6.67914L10.7491 6.38469C10.3521 6.61385 9.84462 6.47786 9.61547 6.08096L9.32102 6.25095Z" fill="#D9D8DD" mask="url(#path-3-outside-1_27166_16329)"/>
</g>
<defs>
<clipPath id="clip0_27166_16329">
<rect width="16" height="16" fill="white"/>
</clipPath>
</defs>
</svg>
