<svg width="64" height="64" viewBox="0 0 64 64" fill="none" xmlns="http://www.w3.org/2000/svg">
<path d="M5.33325 24.2616L10.1817 29.0626C22.2302 17.1322 41.7696 17.1322 53.8181 29.0626L58.6666 24.2616C43.9514 9.69078 20.0726 9.69078 5.33325 24.2616ZM24.7272 43.4654L31.9999 50.6668L39.2726 43.4654C38.3185 42.5181 37.185 41.7665 35.937 41.2537C34.689 40.7408 33.3511 40.4769 31.9999 40.4769C30.6487 40.4769 29.3108 40.7408 28.0629 41.2537C26.8149 41.7665 25.6813 42.5181 24.7272 43.4654ZM15.0302 33.8635L19.8787 38.6645C23.0944 35.483 27.4542 33.6958 31.9999 33.6958C36.5457 33.6958 40.9055 35.483 44.1211 38.6645L48.9696 33.8635C39.612 24.5977 24.412 24.5977 15.0302 33.8635Z" fill="#DFE0FF"/>
</svg>
