<svg width="32" height="32" viewBox="0 0 32 32" fill="none" xmlns="http://www.w3.org/2000/svg">
<path fill-rule="evenodd" clip-rule="evenodd" d="M3.27246 7.08984H15.9997H28.727V19.8171V21.7262V22.3995H19.1816L15.9997 24.908L12.8179 22.5287L5.18155 22.3995V22.3626H3.27246V7.08984ZM5.81792 19.8171H13.4543L15.9997 21.8925L18.5452 19.8171H26.1816V9.6353H15.9997H5.81792V19.8171ZM17.2725 15.3626C17.2725 16.0655 16.7026 16.6353 15.9997 16.6353C15.2968 16.6353 14.727 16.0655 14.727 15.3626C14.727 14.6597 15.2968 14.0898 15.9997 14.0898C16.7026 14.0898 17.2725 14.6597 17.2725 15.3626ZM21.0906 16.6353C21.7936 16.6353 22.3634 16.0655 22.3634 15.3626C22.3634 14.6597 21.7936 14.0898 21.0906 14.0898C20.3877 14.0898 19.8179 14.6597 19.8179 15.3626C19.8179 16.0655 20.3877 16.6353 21.0906 16.6353ZM12.1816 15.3626C12.1816 16.0655 11.6117 16.6353 10.9088 16.6353C10.2059 16.6353 9.6361 16.0655 9.6361 15.3626C9.6361 14.6597 10.2059 14.0898 10.9088 14.0898C11.6117 14.0898 12.1816 14.6597 12.1816 15.3626Z" fill="#F8F7FB"/>
</svg>
