<svg width="16" height="16" viewBox="0 0 16 16" fill="none" xmlns="http://www.w3.org/2000/svg">
<path d="M14.1871 12.2833C13.9552 12.819 13.6808 13.3121 13.3627 13.7655C12.9293 14.3835 12.5743 14.8113 12.3008 15.0489C11.8768 15.4388 11.4225 15.6385 10.936 15.6499C10.5867 15.6499 10.1656 15.5505 9.67528 15.3489C9.1834 15.1483 8.73136 15.0489 8.31804 15.0489C7.88455 15.0489 7.41965 15.1483 6.92237 15.3489C6.42433 15.5505 6.02312 15.6556 5.71637 15.666C5.24986 15.6859 4.78485 15.4805 4.3207 15.0489C4.02446 14.7905 3.65391 14.3476 3.21002 13.72C2.73375 13.0499 2.3422 12.2729 2.03544 11.387C1.70692 10.4301 1.54224 9.50351 1.54224 8.60644C1.54224 7.57886 1.76428 6.69258 2.20903 5.94988C2.55856 5.35332 3.02356 4.88273 3.60555 4.53727C4.18753 4.19181 4.81637 4.01577 5.49357 4.0045C5.86412 4.0045 6.35004 4.11912 6.95389 4.34438C7.55603 4.5704 7.94267 4.68502 8.11218 4.68502C8.23891 4.68502 8.66842 4.55099 9.39654 4.28381C10.0851 4.03602 10.6662 3.93342 11.1423 3.97384C12.4324 4.07795 13.4015 4.58649 14.0461 5.50267C12.8923 6.20174 12.3216 7.18086 12.333 8.43693C12.3434 9.4153 12.6983 10.2295 13.3959 10.8759C13.712 11.1759 14.065 11.4078 14.4578 11.5725C14.3726 11.8195 14.2827 12.0561 14.1871 12.2833ZM11.2284 0.640738C11.2284 1.40758 10.9483 2.12358 10.3899 2.7863C9.71598 3.57414 8.90088 4.02939 8.01697 3.95756C8.0057 3.86556 7.99917 3.76874 7.99917 3.66699C7.99917 2.93082 8.31965 2.14298 8.88876 1.49881C9.17289 1.17266 9.53426 0.901463 9.97247 0.685127C10.4097 0.472019 10.8234 0.354166 11.2124 0.333984C11.2237 0.436499 11.2284 0.53902 11.2284 0.640728V0.640738Z" fill="white"/>
</svg>
