<svg width="20" height="20" viewBox="0 0 20 20" fill="none" xmlns="http://www.w3.org/2000/svg">
<g id="settings_backup_restore">
<path id="Vector" d="M15.8333 10C15.8333 13.2217 13.2217 15.8333 10 15.8333C6.77834 15.8333 4.16667 13.2217 4.16667 10C4.16667 9.93744 4.16765 9.87511 4.16961 9.81302H2.50229C2.50076 9.87516 2.5 9.93749 2.5 10C2.5 14.1421 5.85786 17.5 10 17.5C14.1421 17.5 17.5 14.1421 17.5 10C17.5 5.85786 14.1421 2.5 10 2.5C7.61582 2.5 5.49147 3.61248 4.11773 5.34667L4.11777 4.07895L4.1197 2.64119L2.79524 3.96564L2.7938 7.93756L6.76584 7.93624L8.09029 6.61178L5.25056 6.61239C6.30851 5.1318 8.04154 4.16667 10 4.16667C13.2217 4.16667 15.8333 6.77834 15.8333 10Z" fill="#D9D8DD"/>
</g>
</svg>
