<svg width="24" height="24" viewBox="0 0 24 24" fill="none" xmlns="http://www.w3.org/2000/svg">
<path fill-rule="evenodd" clip-rule="evenodd" d="M13 1H11V3.0703C7.60771 3.55148 5 6.44458 5 9.94167V17H4V19H8.12602C8.57006 20.7252 10.1362 22 12 22C13.8638 22 15.4299 20.7252 15.874 19H20V17H19V9.94167C19 6.44458 16.3923 3.55148 13 3.0703V1ZM12 5C9.22276 5 7 7.22821 7 9.94167V17H17V9.94167C17 7.22821 14.7772 5 12 5ZM12 20C11.2597 20 10.6134 19.5978 10.2676 19H13.7324C13.3866 19.5978 12.7403 20 12 20Z" fill="#3A3A3E"/>
</svg>
