<svg width="10" height="10" viewBox="0 0 10 10" fill="none" xmlns="http://www.w3.org/2000/svg">
<path fill-rule="evenodd" clip-rule="evenodd" d="M4.26829 1.28429C3.81707 0.795714 3.18293 0.5 2.5 0.5C1.12195 0.5 0 1.68286 0 3.13571C0 3.86857 0.280488 4.51143 0.731708 5L5 9.5L9.26829 5C9.71951 4.52429 10 3.85571 10 3.13571C10 1.68286 8.87805 0.5 7.5 0.5C6.80488 0.5 6.18293 0.795715 5.73171 1.27143L5 2.04286L4.26829 1.28429ZM5 8.04689L8.54275 4.31182C8.81843 4.02117 9 3.59864 9 3.13571C9 2.18467 8.27661 1.5 7.5 1.5C7.09924 1.5 6.73385 1.668 6.45725 1.95961L5.00607 3.48956L3.54102 1.97072L3.53366 1.96275C3.26184 1.66843 2.88965 1.5 2.5 1.5C1.72339 1.5 1 2.18467 1 3.13571C1 3.59959 1.17341 4.00237 1.46231 4.31716L5 8.04689Z" fill="#3A3A3E"/>
</svg>
