<svg width="24" height="24" viewBox="0 0 24 24" fill="none" xmlns="http://www.w3.org/2000/svg">
<path d="M19 12C19 15.866 15.866 19 12 19C8.13401 19 5 15.866 5 12C5 11.9249 5.00118 11.8501 5.00353 11.7756H3.00274C3.00092 11.8502 3 11.925 3 12C3 16.9706 7.02944 21 12 21C16.9706 21 21 16.9706 21 12C21 7.02944 16.9706 3 12 3C9.13898 3 6.58976 4.33498 4.94128 6.41601L4.94132 4.89474L4.94364 3.16943L3.35429 4.75877L3.35255 9.52507L8.11901 9.52348L9.70835 7.93414L6.30068 7.93486C7.57021 6.15816 9.64985 5 12 5C15.866 5 19 8.13401 19 12Z" fill="#3A3A3E"/>
</svg>
