<svg width="44" height="44" viewBox="0 0 44 44" fill="none" xmlns="http://www.w3.org/2000/svg">
<path fill-rule="evenodd" clip-rule="evenodd" d="M22 36.6665C30.1001 36.6665 36.6666 30.1 36.6666 21.9998C36.6666 13.8997 30.1001 7.33317 22 7.33317C13.8998 7.33317 7.33329 13.8997 7.33329 21.9998C7.33329 30.1 13.8998 36.6665 22 36.6665ZM22 40.3332C32.1252 40.3332 40.3333 32.1251 40.3333 21.9998C40.3333 11.8746 32.1252 3.6665 22 3.6665C11.8747 3.6665 3.66663 11.8746 3.66663 21.9998C3.66663 32.1251 11.8747 40.3332 22 40.3332ZM23.8333 29.3332V32.9998H20.1666V29.3332H23.8333ZM20.1666 19.3305V10.9998H23.8333V19.3305V25.6665H20.1666V19.3305Z" fill="#D9D8DD"/>
</svg>
