<svg width="12" height="12" viewBox="0 0 12 12" fill="none" xmlns="http://www.w3.org/2000/svg">
<path d="M9.5 6C9.5 7.933 7.933 9.5 6 9.5C4.067 9.5 2.5 7.933 2.5 6C2.5 5.96246 2.50059 5.92506 2.50176 5.88781H1.50137C1.50046 5.9251 1.5 5.96249 1.5 6C1.5 8.48528 3.51472 10.5 6 10.5C8.48528 10.5 10.5 8.48528 10.5 6C10.5 3.51472 8.48528 1.5 6 1.5C4.56949 1.5 3.29488 2.16749 2.47064 3.208L2.47066 2.44737L2.47182 1.58471L1.67715 2.37939L1.67628 4.76253L4.0595 4.76174L4.85418 3.96707L3.15034 3.96743C3.78511 3.07908 4.82493 2.5 6 2.5C7.933 2.5 9.5 4.067 9.5 6Z" fill="#3A3A3E"/>
</svg>
