<svg width="18" height="16" viewBox="0 0 18 16" fill="none" xmlns="http://www.w3.org/2000/svg">
<path fill-rule="evenodd" clip-rule="evenodd" d="M7.77788 1.80714C7.02585 0.992856 5.96894 0.5 4.83073 0.5C2.53398 0.5 0.664062 2.47143 0.664062 4.89286C0.664062 6.11429 1.13154 7.18572 1.88358 8L8.9974 15.5L16.1112 8C16.8633 7.20714 17.3307 6.09286 17.3307 4.89286C17.3307 2.47143 15.4608 0.5 13.1641 0.5C12.0055 0.5 10.9689 0.992858 10.2169 1.78572L8.9974 3.07143L7.77788 1.80714ZM8.9974 13.0782L14.902 6.85303C15.3615 6.36862 15.6641 5.66441 15.6641 4.89286C15.6641 3.30779 14.4584 2.16667 13.1641 2.16667C12.4961 2.16667 11.8871 2.44666 11.4261 2.93268L9.00752 5.4826L6.56577 2.95121L6.5535 2.93792C6.10047 2.44739 5.48015 2.16667 4.83073 2.16667C3.53638 2.16667 2.33073 3.30779 2.33073 4.89286C2.33073 5.66598 2.61975 6.33729 3.10125 6.86193L8.9974 13.0782Z" fill="#D9D8DD"/>
</svg>
