<svg width="64" height="64" viewBox="0 0 64 64" fill="none" xmlns="http://www.w3.org/2000/svg">
<path fill-rule="evenodd" clip-rule="evenodd" d="M52.69 8.49848L41.8675 19.3265L42.5505 21.4389L44.6653 22.1187L55.4878 11.2908L57.09 14.6717C60.0021 20.8163 58.8727 28.4046 53.7623 33.5176C49.1309 38.1512 42.4611 39.5203 36.6717 37.5762L15.592 58.6666L5.33325 48.4283L26.4099 27.341C24.4524 21.5562 25.8131 14.8849 30.447 10.2487C35.5582 5.13485 43.1523 3.99723 49.3057 6.90127L52.69 8.49848ZM43.1064 10.6316C39.9243 10.3986 36.6383 11.5096 34.1774 13.9717C30.6648 17.4861 29.9091 22.677 31.8863 26.8441L32.682 28.5211L12.7895 48.4236L15.5873 51.2159L35.4811 31.312L37.1596 32.1033C41.3312 34.0697 46.5212 33.3069 50.0318 29.7945C52.4918 27.3333 53.5996 24.0498 53.3635 20.8715L46.1185 28.1202L38.364 25.6275L35.8597 17.8819L43.1064 10.6316Z" fill="#3A3A3E"/>
</svg>
