<svg width="24" height="24" viewBox="0 0 24 24" fill="none" xmlns="http://www.w3.org/2000/svg">
<path fill-rule="evenodd" clip-rule="evenodd" d="M10.5366 4.56845C9.63415 3.59131 8.36585 2.99988 7 2.99988C4.2439 2.99988 2 5.36559 2 8.27131C2 9.73702 2.56098 11.0227 3.46342 11.9999L12 20.9999L20.5366 11.9999C21.439 11.0484 22 9.71131 22 8.27131C22 5.36559 19.7561 2.99988 17 2.99988C15.6098 2.99988 14.3659 3.59131 13.4634 4.54274L12 6.08559L10.5366 4.56845ZM12 18.0937L19.0855 10.6235C19.6369 10.0422 20 9.19717 20 8.27131C20 6.36922 18.5532 4.99988 17 4.99988C16.1985 4.99988 15.4677 5.33587 14.9145 5.9191L12.0121 8.979L9.08205 5.94132L9.06732 5.92538C8.52368 5.33674 7.77931 4.99988 7 4.99988C5.44678 4.99988 4 6.36922 4 8.27131C4 9.19905 4.34683 10.0046 4.92462 10.6342L12 18.0937Z" fill="#3A3A3E"/>
<path fill-rule="evenodd" clip-rule="evenodd" d="M10.5366 4.56845C9.63415 3.59131 8.36585 2.99988 7 2.99988C4.2439 2.99988 2 5.36559 2 8.27131C2 9.73702 2.56098 11.0227 3.46342 11.9999L12 20.9999L20.5366 11.9999C21.439 11.0484 22 9.71131 22 8.27131C22 5.36559 19.7561 2.99988 17 2.99988C15.6098 2.99988 14.3659 3.59131 13.4634 4.54274L12 6.08559L10.5366 4.56845ZM12 18.0937L19.0855 10.6235C19.6369 10.0422 20 9.19717 20 8.27131C20 6.36922 18.5532 4.99988 17 4.99988C16.1985 4.99988 15.4677 5.33587 14.9145 5.9191L12.0121 8.979L9.08205 5.94132L9.06732 5.92538C8.52368 5.33674 7.77931 4.99988 7 4.99988C5.44678 4.99988 4 6.36922 4 8.27131C4 9.19905 4.34683 10.0046 4.92462 10.6342L12 18.0937Z" fill="#3A3A3E"/>
</svg>
