<svg width="20" height="20" viewBox="0 0 20 20" fill="none" xmlns="http://www.w3.org/2000/svg">
<path fill-rule="evenodd" clip-rule="evenodd" d="M10.0013 16.666C13.6832 16.666 16.668 13.6812 16.668 9.99935C16.668 6.31745 13.6832 3.33268 10.0013 3.33268C6.3194 3.33268 3.33464 6.31745 3.33464 9.99935C3.33464 13.6812 6.3194 16.666 10.0013 16.666ZM10.0013 18.3327C14.6037 18.3327 18.3346 14.6017 18.3346 9.99935C18.3346 5.39698 14.6037 1.66602 10.0013 1.66602C5.39893 1.66602 1.66797 5.39698 1.66797 9.99935C1.66797 14.6017 5.39893 18.3327 10.0013 18.3327ZM10.8346 12.4993V12.1035C10.8233 11.741 10.9226 11.4334 11.1326 11.1806L12.7727 9.34911C13.136 8.93894 13.3233 8.42622 13.3346 7.81096C13.3233 6.94291 12.9799 6.25372 12.3044 5.74339C11.6517 5.2569 10.8712 5.00889 9.96299 4.99935C9.07183 5.00889 8.30555 5.27598 7.66414 5.80062C7.01138 6.32049 6.67932 6.98584 6.66797 7.79665V8.08997H8.33464C8.33464 7.50332 8.49924 7.08838 8.82846 6.84514C9.11795 6.61143 9.60255 6.49458 10.0566 6.49458C10.4256 6.49458 10.7662 6.60666 11.0784 6.83083C11.3849 7.06453 11.5438 7.38647 11.5552 7.79665C11.5552 8.09712 11.4104 8.41906 11.1209 8.76247L9.61922 10.5796C9.43759 10.7943 9.31555 11.0089 9.25311 11.2235C9.19635 11.4477 9.16797 11.7005 9.16797 11.9819V12.4993H10.8346ZM10.8346 14.9993V13.3327H9.16797V14.9993H10.8346Z" fill="#3A3A3E"/>
</svg>
