<svg width="28" height="28" viewBox="0 0 28 28" fill="none" xmlns="http://www.w3.org/2000/svg">
<path fill-rule="evenodd" clip-rule="evenodd" d="M2.3335 5.83334H14.0002H25.6668V17.5V19.25V19.8672H16.9168L14.0002 22.1667L11.0835 19.9856L4.0835 19.8672V19.8333H2.3335V5.83334ZM4.66683 17.5H11.6668L14.0002 19.4024L16.3335 17.5H23.3335V8.16667H14.0002H4.66683V17.5ZM15.1668 13.4167C15.1668 14.061 14.6445 14.5833 14.0002 14.5833C13.3558 14.5833 12.8335 14.061 12.8335 13.4167C12.8335 12.7723 13.3558 12.25 14.0002 12.25C14.6445 12.25 15.1668 12.7723 15.1668 13.4167ZM18.6668 14.5833C19.3112 14.5833 19.8335 14.061 19.8335 13.4167C19.8335 12.7723 19.3112 12.25 18.6668 12.25C18.0225 12.25 17.5002 12.7723 17.5002 13.4167C17.5002 14.061 18.0225 14.5833 18.6668 14.5833ZM10.5002 13.4167C10.5002 14.061 9.97783 14.5833 9.3335 14.5833C8.68916 14.5833 8.16683 14.061 8.16683 13.4167C8.16683 12.7723 8.68916 12.25 9.3335 12.25C9.97783 12.25 10.5002 12.7723 10.5002 13.4167Z" fill="#F8F7FB"/>
</svg>
