<svg width="96" height="128" viewBox="0 0 96 128" fill="none" xmlns="http://www.w3.org/2000/svg">
<rect opacity="0.6" width="96" height="128" fill="white"/>
<path d="M21 62.1782C22.6291 63.1109 24.6954 63.6786 26.9073 63.6786C31.3444 63.6786 33.6623 62.5297 33.6623 60.3264C33.6623 58.3259 31.5034 57.4068 27.3709 57.2581C24.8146 57.1635 23.649 56.8796 23.649 56.0821C23.649 55.2846 24.5762 54.9602 26.8941 54.9332C29.212 54.9197 30.9073 55.3793 32.3643 56.2308L33.0001 54.2979C31.2915 53.4463 29.3842 52.9868 26.9338 53.0003C23.3444 53.0138 21.4768 54.0952 21.4768 56.1632C21.4768 58.0691 23.5828 59.0423 27.8345 59.2316C30.3378 59.3397 31.3444 59.5965 31.3444 60.3264C31.3444 61.2996 29.7815 61.7187 27.1722 61.7322C25.1722 61.7457 23.3444 61.2591 21.7815 60.3264L21 62.1782Z" fill="#B5B4B9"/>
<path d="M41.0697 63.6921C45.1889 63.6921 47.7717 61.6646 47.7717 58.4206C47.7717 55.1765 45.1889 53.0003 41.0697 53.0003C36.9239 53.0003 34.3279 55.1765 34.3279 58.4206C34.3279 61.6646 36.9239 63.6921 41.0697 63.6921ZM41.0697 61.8809C38.3809 61.8809 36.6988 60.5427 36.712 58.4206C36.6988 56.2038 38.3809 54.6899 41.0697 54.6899C43.7319 54.6899 45.4008 56.2038 45.3876 58.4206C45.4008 60.5427 43.7319 61.8809 41.0697 61.8809Z" fill="#B5B4B9"/>
<path d="M49.0522 53.3652V63.2866H59.8602V61.3943H51.3569V53.3652H49.0522Z" fill="#B5B4B9"/>
<path d="M61.1125 63.2866V53.4193H67.351C71.7218 53.4193 74 55.0549 74 58.1908C74 61.5429 71.7218 63.2866 67.351 63.2866H61.1125ZM63.3907 55.1765V61.4754H67.351C70.0927 61.4754 71.5232 60.367 71.5232 58.2313C71.5232 56.2173 70.0927 55.1765 67.351 55.1765H63.3907Z" fill="#B5B4B9"/>
<path d="M34.7418 80.5C38.861 80.5 41.4438 78.4725 41.4438 75.2284C41.4438 71.9844 38.861 69.8082 34.7418 69.8082C30.596 69.8082 28 71.9844 28 75.2284C28 78.4725 30.596 80.5 34.7418 80.5ZM34.7418 78.6887C32.053 78.6887 30.3709 77.3506 30.3841 75.2284C30.3709 73.0117 32.053 71.4978 34.7418 71.4978C37.404 71.4978 39.0729 73.0117 39.0597 75.2284C39.0729 77.3506 37.404 78.6887 34.7418 78.6887Z" fill="#B5B4B9"/>
<path d="M42.5805 75.7691C42.5805 78.513 44.4348 80.5 48.4083 80.5C52.3819 80.5 54.2362 78.513 54.2362 75.7691L54.2229 70.1866H51.9845V75.2149C51.9845 77.0802 50.9117 78.6076 48.4083 78.6076C45.905 78.6076 44.8322 77.0802 44.8322 75.2149V70.1866H42.5805V75.7691Z" fill="#B5B4B9"/>
<path d="M55.1991 72.0655H59.9408V80.0945H62.2454V72.0655H66.9872V70.1731H55.1991V72.0655Z" fill="#B5B4B9"/>
</svg>
