<svg width="109" height="12" viewBox="0 0 109 12" fill="none" xmlns="http://www.w3.org/2000/svg">
<path d="M0.333984 10.3009C2.15056 11.3477 4.45451 11.9848 6.92092 11.9848C11.8685 11.9848 14.4531 10.6954 14.4531 8.2226C14.4531 5.97741 12.0457 4.94583 7.43783 4.77896C4.58743 4.67276 3.28777 4.35419 3.28777 3.45914C3.28777 2.5641 4.32159 2.20001 6.90615 2.16967C9.49071 2.1545 11.3811 2.67029 13.0057 3.62602L13.7146 1.45667C11.8094 0.500943 9.68271 -0.0148447 6.95046 0.000325335C2.94808 0.0154954 0.865665 1.22912 0.865665 3.55017C0.865665 5.68917 3.21392 6.78143 7.95474 6.99381C10.7461 7.11518 11.8685 7.40341 11.8685 8.2226C11.8685 9.31486 10.1258 9.78514 7.2163 9.80031C4.98619 9.81548 2.94808 9.26935 1.20535 8.2226L0.333984 10.3009Z" fill="#B5B4B9"/>
<path d="M22.7126 12C27.3057 12 30.1857 9.72446 30.1857 6.0836C30.1857 2.44274 27.3057 0.000325335 22.7126 0.000325335C18.0899 0.000325335 15.1952 2.44274 15.1952 6.0836C15.1952 9.72446 18.0899 12 22.7126 12ZM22.7126 9.96718C19.7145 9.96718 17.8388 8.46533 17.8536 6.0836C17.8388 3.59568 19.7145 1.89661 22.7126 1.89661C25.6811 1.89661 27.542 3.59568 27.5272 6.0836C27.542 8.46533 25.6811 9.96718 22.7126 9.96718Z" fill="#B5B4B9"/>
<path d="M31.6135 0.409922V11.5449H43.6649V9.42106H34.1833V0.409922H31.6135Z" fill="#B5B4B9"/>
<path d="M45.0613 11.5449V0.470603H52.0175C56.8912 0.470603 59.4314 2.3062 59.4314 5.82571C59.4314 9.58793 56.8912 11.5449 52.0175 11.5449H45.0613ZM47.6015 2.44274V9.51208H52.0175C55.0746 9.51208 56.6697 8.26812 56.6697 5.87122C56.6697 3.61085 55.0746 2.44274 52.0175 2.44274H47.6015Z" fill="#B5B4B9"/>
<path d="M72.3788 12C76.9719 12 79.8519 9.72446 79.8519 6.0836C79.8519 2.44274 76.9719 0.000325335 72.3788 0.000325335C67.7561 0.000325335 64.8614 2.44274 64.8614 6.0836C64.8614 9.72446 67.7561 12 72.3788 12ZM72.3788 9.96718C69.3807 9.96718 67.5051 8.46533 67.5198 6.0836C67.5051 3.59568 69.3807 1.89661 72.3788 1.89661C75.3474 1.89661 77.2083 3.59568 77.1935 6.0836C77.2083 8.46533 75.3474 9.96718 72.3788 9.96718Z" fill="#B5B4B9"/>
<path d="M81.1194 6.69041C81.1194 9.76997 83.187 12 87.6177 12C92.0484 12 94.116 9.76997 94.116 6.69041L94.1012 0.425092H91.6053V6.06843C91.6053 8.16192 90.409 9.87616 87.6177 9.87616C84.8264 9.87616 83.6301 8.16192 83.6301 6.06843V0.425092H81.1194V6.69041Z" fill="#B5B4B9"/>
<path d="M95.1896 2.53376H100.477V11.5449H103.047V2.53376H108.334V0.409922H95.1896V2.53376Z" fill="#B5B4B9"/>
</svg>
