<svg width="24" height="24" viewBox="0 0 24 24" fill="none" xmlns="http://www.w3.org/2000/svg">
<path d="M16.961 14.7896H15.8981V12.4353C15.8981 11.8932 15.5767 11.6019 15.0823 11.6019C14.5302 11.6019 14.1759 11.9336 14.1759 12.605V14.7896H13.1129V9.03107H14.1759V11.1973C14.4313 10.8171 14.8433 10.631 15.4036 10.631C15.8568 10.631 16.2277 10.7765 16.5161 11.0758C16.8127 11.3752 16.961 11.7798 16.961 12.3057V14.7896ZM9.31833 13.8071C10.1025 13.8071 10.7733 13.3462 10.9748 12.634H12.1348C11.8513 14.0046 10.765 14.9027 9.31833 14.9027C7.63691 14.9027 6.30361 13.6715 6.30361 11.9577C6.30361 10.244 7.63691 9.01281 9.31833 9.01281C10.7797 9.01281 11.8735 9.92901 12.1436 11.323H10.9868C10.8108 10.565 10.1172 10.0927 9.31833 10.0927C8.18771 10.0927 7.43568 10.8846 7.43568 11.9577C7.43568 13.0309 8.29067 13.8071 9.31833 13.8071ZM11.9999 4.7002C7.58172 4.7002 4 7.95321 4 11.966C4 14.9296 5.26406 16.3443 6.99552 17.634L7.00368 17.6376V21.1155C7.00368 21.2796 7.19424 21.3737 7.32864 21.2759L10.3623 19.0631L10.4276 19.0909C10.936 19.183 11.4619 19.2316 11.9999 19.2316C16.4184 19.2316 20 15.9786 20 11.966C20 7.95321 16.4184 4.7002 11.9999 4.7002Z" fill="white"/>
</svg>
