<svg width="72" height="96" viewBox="0 0 72 96" fill="none" xmlns="http://www.w3.org/2000/svg">
<path d="M16.9754 34.8501L18.151 36.9995L20.3004 38.1751L18.151 39.3507L16.9754 41.5001L15.7998 39.3507L13.6504 38.1751L15.7998 36.9995L16.9754 34.8501Z" fill="#5764FF"/>
<path d="M19.825 32.9502L21.0006 35.0996L23.15 36.2752L21.0006 37.4508L19.825 39.6002L18.6494 37.4508L16.5 36.2752L18.6494 35.0996L19.825 32.9502Z" fill="#5764FF"/>
<path d="M22.6746 32.0005L23.8502 34.1499L25.9996 35.3255L23.8502 36.5011L22.6746 38.6505L21.499 36.5011L19.3496 35.3255L21.499 34.1499L22.6746 32.0005Z" fill="#5764FF"/>
<path d="M22.6746 34.8501L23.8502 36.9995L25.9996 38.1751L23.8502 39.3507L22.6746 41.5001L21.499 39.3507L19.3496 38.1751L21.499 36.9995L22.6746 34.8501Z" fill="#5764FF"/>
<path d="M22.6746 37.7002L23.8502 39.8496L25.9996 41.0252L23.8502 42.2008L22.6746 44.3502L21.499 42.2008L19.3496 41.0252L21.499 39.8496L22.6746 37.7002Z" fill="#5764FF"/>
<path d="M22.6746 40.5503L23.8502 42.6997L25.9996 43.8753L23.8502 45.0509L22.6746 47.2003L21.499 45.0509L19.3496 43.8753L21.499 42.6997L22.6746 40.5503Z" fill="#5764FF"/>
<path d="M22.6746 43.4004L23.8502 45.5498L25.9996 46.7254L23.8502 47.901L22.6746 50.0504L21.499 47.901L19.3496 46.7254L21.499 45.5498L22.6746 43.4004Z" fill="#5764FF"/>
<path d="M22.6746 45.3003L23.8502 47.4497L25.9996 48.6253L23.8502 49.8009L22.6746 51.9503L21.499 49.8009L19.3496 48.6253L21.499 47.4497L22.6746 45.3003Z" fill="#5764FF"/>
<path d="M35.0262 31.0503L36.2017 33.1997L38.3512 34.3753L36.2017 35.5509L35.0262 37.7003L33.8506 35.5509L31.7012 34.3753L33.8506 33.1997L35.0262 31.0503Z" fill="#5764FF"/>
<path d="M54.0262 31.0503L55.2017 33.1997L57.3512 34.3753L55.2017 35.5509L54.0262 37.7003L52.8506 35.5509L50.7012 34.3753L52.8506 33.1997L54.0262 31.0503Z" fill="#5764FF"/>
<path d="M35.0262 51.9502L36.2017 49.8008L38.3512 48.6252L36.2017 47.4496L35.0262 45.3002L33.8506 47.4496L31.7012 48.6252L33.8506 49.8008L35.0262 51.9502Z" fill="#5764FF"/>
<path d="M54.0262 51.9502L55.2017 49.8008L57.3512 48.6252L55.2017 47.4496L54.0262 45.3002L52.8506 47.4496L50.7012 48.6252L52.8506 49.8008L54.0262 51.9502Z" fill="#5764FF"/>
<path d="M35.0246 31.0503L33.849 33.1997L31.6996 34.3753L33.849 35.5509L35.0246 37.7003L36.2002 35.5509L38.3496 34.3753L36.2002 33.1997L35.0246 31.0503Z" fill="#5764FF"/>
<path d="M54.0246 31.0503L52.849 33.1997L50.6996 34.3753L52.849 35.5509L54.0246 37.7003L55.2002 35.5509L57.3496 34.3753L55.2002 33.1997L54.0246 31.0503Z" fill="#5764FF"/>
<path d="M35.0246 51.9502L33.849 49.8008L31.6996 48.6252L33.849 47.4496L35.0246 45.3002L36.2002 47.4496L38.3496 48.6252L36.2002 49.8008L35.0246 51.9502Z" fill="#5764FF"/>
<path d="M54.0246 51.9502L52.849 49.8008L50.6996 48.6252L52.849 47.4496L54.0246 45.3002L55.2002 47.4496L57.3496 48.6252L55.2002 49.8008L54.0246 51.9502Z" fill="#5764FF"/>
<path d="M32.1746 32.0005L33.3502 34.1499L35.4996 35.3255L33.3502 36.5011L32.1746 38.6505L30.999 36.5011L28.8496 35.3255L30.999 34.1499L32.1746 32.0005Z" fill="#5764FF"/>
<path d="M51.1746 32.0005L52.3502 34.1499L54.4996 35.3255L52.3502 36.5011L51.1746 38.6505L49.999 36.5011L47.8496 35.3255L49.999 34.1499L51.1746 32.0005Z" fill="#5764FF"/>
<path d="M32.1746 51.0005L33.3502 48.8511L35.4996 47.6755L33.3502 46.4999L32.1746 44.3505L30.999 46.4999L28.8496 47.6755L30.999 48.8511L32.1746 51.0005Z" fill="#5764FF"/>
<path d="M51.1746 51.0005L52.3502 48.8511L54.4996 47.6755L52.3502 46.4999L51.1746 44.3505L49.999 46.4999L47.8496 47.6755L49.999 48.8511L51.1746 51.0005Z" fill="#5764FF"/>
<path d="M37.8762 32.0005L36.7006 34.1499L34.5512 35.3255L36.7006 36.5011L37.8762 38.6505L39.0517 36.5011L41.2012 35.3255L39.0517 34.1499L37.8762 32.0005Z" fill="#5764FF"/>
<path d="M56.8762 32.0005L55.7006 34.1499L53.5512 35.3255L55.7006 36.5011L56.8762 38.6505L58.0517 36.5011L60.2012 35.3255L58.0517 34.1499L56.8762 32.0005Z" fill="#5764FF"/>
<path d="M37.8762 51.0005L36.7006 48.8511L34.5512 47.6755L36.7006 46.4999L37.8762 44.3505L39.0517 46.4999L41.2012 47.6755L39.0517 48.8511L37.8762 51.0005Z" fill="#5764FF"/>
<path d="M56.8762 51.0005L55.7006 48.8511L53.5512 47.6755L55.7006 46.4999L56.8762 44.3505L58.0517 46.4999L60.2012 47.6755L58.0517 48.8511L56.8762 51.0005Z" fill="#5764FF"/>
<path d="M29.325 33.9004L30.5006 36.0498L32.65 37.2254L30.5006 38.401L29.325 40.5504L28.1494 38.401L26 37.2254L28.1494 36.0498L29.325 33.9004Z" fill="#5764FF"/>
<path d="M48.325 33.9004L49.5006 36.0498L51.65 37.2254L49.5006 38.401L48.325 40.5504L47.1494 38.401L45 37.2254L47.1494 36.0498L48.325 33.9004Z" fill="#5764FF"/>
<path d="M29.325 49.1001L30.5006 46.9507L32.65 45.7751L30.5006 44.5995L29.325 42.4501L28.1494 44.5995L26 45.7751L28.1494 46.9507L29.325 49.1001Z" fill="#5764FF"/>
<path d="M48.325 49.1001L49.5006 46.9507L51.65 45.7751L49.5006 44.5995L48.325 42.4501L47.1494 44.5995L45 45.7751L47.1494 46.9507L48.325 49.1001Z" fill="#5764FF"/>
<path d="M40.7258 33.9004L39.5502 36.0498L37.4008 37.2254L39.5502 38.401L40.7258 40.5504L41.9013 38.401L44.0508 37.2254L41.9013 36.0498L40.7258 33.9004Z" fill="#5764FF"/>
<path d="M59.7258 33.9004L58.5502 36.0498L56.4008 37.2254L58.5502 38.401L59.7258 40.5504L60.9013 38.401L63.0508 37.2254L60.9013 36.0498L59.7258 33.9004Z" fill="#5764FF"/>
<path d="M40.7258 49.1001L39.5502 46.9507L37.4008 45.7751L39.5502 44.5995L40.7258 42.4501L41.9013 44.5995L44.0508 45.7751L41.9013 46.9507L40.7258 49.1001Z" fill="#5764FF"/>
<path d="M59.7258 49.1001L58.5502 46.9507L56.4008 45.7751L58.5502 44.5995L59.7258 42.4501L60.9013 44.5995L63.0508 45.7751L60.9013 46.9507L59.7258 49.1001Z" fill="#5764FF"/>
<path d="M28.3758 36.7505L29.5513 38.8999L31.7008 40.0755L29.5513 41.2511L28.3758 43.4005L27.2002 41.2511L25.0508 40.0755L27.2002 38.8999L28.3758 36.7505Z" fill="#5764FF"/>
<path d="M47.3758 36.7505L48.5513 38.8999L50.7008 40.0755L48.5513 41.2511L47.3758 43.4005L46.2002 41.2511L44.0508 40.0755L46.2002 38.8999L47.3758 36.7505Z" fill="#5764FF"/>
<path d="M28.3758 46.2505L29.5513 44.1011L31.7008 42.9255L29.5513 41.7499L28.3758 39.6005L27.2002 41.7499L25.0508 42.9255L27.2002 44.1011L28.3758 46.2505Z" fill="#5764FF"/>
<path d="M47.3758 46.2505L48.5513 44.1011L50.7008 42.9255L48.5513 41.7499L47.3758 39.6005L46.2002 41.7499L44.0508 42.9255L46.2002 44.1011L47.3758 46.2505Z" fill="#5764FF"/>
<path d="M41.675 36.7505L40.4994 38.8999L38.35 40.0755L40.4994 41.2511L41.675 43.4005L42.8506 41.2511L45 40.0755L42.8506 38.8999L41.675 36.7505Z" fill="#5764FF"/>
<path d="M60.675 36.7505L59.4994 38.8999L57.35 40.0755L59.4994 41.2511L60.675 43.4005L61.8506 41.2511L64 40.0755L61.8506 38.8999L60.675 36.7505Z" fill="#5764FF"/>
<path d="M41.675 46.2505L40.4994 44.1011L38.35 42.9255L40.4994 41.7499L41.675 39.6005L42.8506 41.7499L45 42.9255L42.8506 44.1011L41.675 46.2505Z" fill="#5764FF"/>
<path d="M60.675 46.2505L59.4994 44.1011L57.35 42.9255L59.4994 41.7499L60.675 39.6005L61.8506 41.7499L64 42.9255L61.8506 44.1011L60.675 46.2505Z" fill="#5764FF"/>
<path fill-rule="evenodd" clip-rule="evenodd" d="M32.0237 72.5361C31.345 71.8012 30.3912 71.3564 29.3639 71.3564C27.2911 71.3564 25.6035 73.1357 25.6035 75.321C25.6035 76.4233 26.0254 77.3903 26.7041 78.1252L33.1243 84.8939L39.5446 78.1252C40.2233 77.4096 40.6452 76.404 40.6452 75.321C40.6452 73.1357 38.9576 71.3564 36.8848 71.3564C35.8392 71.3564 34.9037 71.8012 34.225 72.5168L33.1243 73.6772L32.0237 72.5361Z" fill="#9BA4FF"/>
<path fill-rule="evenodd" clip-rule="evenodd" d="M49.1233 72.5361C48.4446 71.8012 47.4908 71.3564 46.4635 71.3564C44.3907 71.3564 42.7031 73.1357 42.7031 75.321C42.7031 76.4233 43.125 77.3903 43.8037 78.1252L50.224 84.8939L56.6442 78.1252C57.3229 77.4096 57.7448 76.404 57.7448 75.321C57.7448 73.1357 56.0572 71.3564 53.9844 71.3564C52.9388 71.3564 52.0033 71.8012 51.3246 72.5168L50.224 73.6772L49.1233 72.5361Z" fill="#9BA4FF"/>
<path fill-rule="evenodd" clip-rule="evenodd" d="M23.3092 76.8582V74.4832L19.3509 70.5249L15.3926 74.4832V76.8582L18.5592 73.6916L18.5592 84.7749H20.1426V73.6916L23.3092 76.8582Z" fill="#9BA4FF"/>
<rect x="7" y="15.8501" width="7.6" height="15.2" fill="#DFE0FF"/>
<ellipse cx="25.0508" cy="23.4501" rx="9.5" ry="7.6" fill="#DFE0FF"/>
<ellipse cx="45" cy="23.4501" rx="9.5" ry="7.6" fill="#DFE0FF"/>
<path fill-rule="evenodd" clip-rule="evenodd" d="M29.7984 51.9497H24.0984L24.0984 53.8497H22.1984L22.1984 55.7497H20.2984V57.6497L18.3984 57.6497V59.5501V61.4497V63.3501H20.2984V65.2501H22.1984L22.1984 67.1501H24.0984L24.0984 69.0501H29.7984V67.1501H31.6984V65.2501H33.5984V63.3501H35.4984V61.4497V59.5501V57.6497L33.5984 57.6497V55.7497L31.6984 55.7497V53.8497H29.7984V51.9497ZM31.6984 59.5501V57.6497H29.7984V55.7497H24.0984L24.0984 57.6497H22.1984L22.1984 59.5501V61.4497L22.1984 63.3501H24.0984L24.0984 65.2501H29.7984V63.3501H31.6984V61.4497V59.5501Z" fill="#1B1B1F"/>
<path fill-rule="evenodd" clip-rule="evenodd" d="M48.7984 51.9497H43.0984V53.8497H41.1984L41.1984 55.7497H39.2984V57.6497L37.3984 57.6497V59.5501V61.4497V63.3501H39.2984V65.2501H41.1984V67.1501H43.0984V69.0501H48.7984L48.7984 67.1501H50.6984V65.2501H52.5984V63.3501H54.4984V61.4497V59.5501V57.6497L52.5984 57.6497V55.7497L50.6984 55.7497V53.8497H48.7984L48.7984 51.9497ZM50.6984 59.5501V57.6497H48.7984L48.7984 55.7497H43.0984V57.6497H41.1984L41.1984 59.5501L41.1984 61.4497L41.1984 63.3501H43.0984V65.2501H48.7984L48.7984 63.3501H50.6984V61.4497V59.5501Z" fill="#1B1B1F"/>
<path fill-rule="evenodd" clip-rule="evenodd" d="M12.7 51.9502H16.5V52.9002V56.7002V67.1502V69.0502H12.7V67.1502V56.7002V55.7502H10.8V56.7002H8.9H7V54.8002H8.9V53.8502H10.8V52.9002H12.7V51.9502Z" fill="#1B1B1F"/>
</svg>
