<svg width="72" height="96" viewBox="0 0 72 96" fill="none" xmlns="http://www.w3.org/2000/svg">
<path d="M42.5 25L43.0514 35.9794L44.7474 25.1178L44.148 36.0947L46.9701 25.4698L45.2267 36.324L49.1439 26.0523L46.2754 36.6647L51.2448 26.8588L47.2828 37.1132L53.25 27.8805L48.2378 37.6646L55.1374 29.1061L49.1299 38.3128L56.8863 30.5224L49.9494 39.0506L58.4776 32.1137L50.6872 39.8701L59.8939 33.8626L51.3354 40.7622L61.1195 35.75L51.8868 41.7172L62.1412 37.7552L52.3353 42.7246L62.9477 39.8561L52.676 43.7733L63.5302 42.0299L52.9053 44.852L63.8822 44.2526L53.0206 45.9486L64 46.5L53.0206 47.0514L63.8822 48.7474L52.9053 48.148L63.5302 50.9701L52.676 49.2267L62.9477 53.1439L52.3353 50.2754L62.1412 55.2448L51.8868 51.2828L61.1195 57.25L51.3354 52.2378L59.8939 59.1374L50.6872 53.1299L58.4776 60.8863L49.9494 53.9494L56.8863 62.4776L49.1299 54.6872L55.1374 63.8939L48.2378 55.3354L53.25 65.1195L47.2828 55.8868L51.2448 66.1412L46.2754 56.3353L49.1439 66.9477L45.2267 56.676L46.9701 67.5302L44.148 56.9053L44.7474 67.8822L43.0514 57.0206L42.5 68L41.9486 57.0206L40.2526 67.8822L40.852 56.9053L38.0299 67.5302L39.7733 56.676L35.8561 66.9477L38.7246 56.3353L33.7552 66.1412L37.7172 55.8868L31.75 65.1195L36.7622 55.3354L29.8626 63.8939L35.8701 54.6872L28.1137 62.4776L35.0506 53.9494L26.5224 60.8863L34.3128 53.1299L25.1061 59.1374L33.6646 52.2378L23.8805 57.25L33.1132 51.2828L22.8588 55.2448L32.6647 50.2754L22.0523 53.1439L32.324 49.2267L21.4698 50.9701L32.0947 48.148L21.1178 48.7474L31.9794 47.0514L21 46.5L31.9794 45.9486L21.1178 44.2526L32.0947 44.852L21.4698 42.0299L32.324 43.7733L22.0523 39.8561L32.6647 42.7246L22.8588 37.7552L33.1132 41.7172L23.8805 35.75L33.6646 40.7622L25.1061 33.8626L34.3128 39.8701L26.5224 32.1137L35.0506 39.0506L28.1137 30.5224L35.8701 38.3128L29.8626 29.1061L36.7622 37.6646L31.75 27.8805L37.7172 37.1132L33.7552 26.8588L38.7246 36.6647L35.8561 26.0523L39.7733 36.324L38.0299 25.4698L40.852 36.0947L40.2526 25.1178L41.9486 35.9794L42.5 25Z" fill="#DFE0FF"/>
<path d="M28 14L29.2841 16.0459L30.8463 14.2036L31.8262 16.4114L33.6347 14.8101L34.2904 17.1349L36.3083 15.8074L36.6265 18.2018L38.8128 17.1749L38.787 19.5903L41.0972 18.885L40.7279 21.2721L43.115 20.9028L42.4097 23.213L44.8251 23.1872L43.7982 25.3735L46.1926 25.6917L44.8651 27.7096L47.1899 28.3653L45.5886 30.1738L47.7964 31.1537L45.9541 32.7159L48 34L45.9541 35.2841L47.7964 36.8463L45.5886 37.8262L47.1899 39.6347L44.8651 40.2904L46.1926 42.3083L43.7982 42.6265L44.8251 44.8128L42.4097 44.787L43.115 47.0972L40.7279 46.7279L41.0972 49.115L38.787 48.4097L38.8128 50.8251L36.6265 49.7982L36.3083 52.1926L34.2904 50.8651L33.6347 53.1899L31.8262 51.5886L30.8463 53.7964L29.2841 51.9541L28 54L26.7159 51.9541L25.1537 53.7964L24.1738 51.5886L22.3653 53.1899L21.7096 50.8651L19.6917 52.1926L19.3735 49.7982L17.1872 50.8251L17.213 48.4097L14.9028 49.115L15.2721 46.7279L12.885 47.0972L13.5903 44.787L11.1749 44.8128L12.2018 42.6265L9.80736 42.3083L11.1349 40.2904L8.81014 39.6347L10.4114 37.8262L8.20357 36.8463L10.0459 35.2841L8 34L10.0459 32.7159L8.20357 31.1537L10.4114 30.1738L8.81014 28.3653L11.1349 27.7096L9.80736 25.6917L12.2018 25.3735L11.1749 23.1872L13.5903 23.213L12.885 20.9028L15.2721 21.2721L14.9028 18.885L17.213 19.5903L17.1872 17.1749L19.3735 18.2018L19.6917 15.8074L21.7096 17.1349L22.3653 14.8101L24.1738 16.4114L25.1537 14.2036L26.7159 16.0459L28 14Z" fill="#959499"/>
<path d="M14.0245 34.3694L14.5623 33.4745C15.3161 34.0638 16.2396 34.443 17.288 34.5778C18.6555 34.7557 19.5031 34.6514 19.5707 34.1519C19.6214 33.7773 19.112 33.5742 17.8084 33.3414C15.5949 32.9431 14.5595 32.2944 14.6918 31.3163C14.8353 30.255 15.8885 29.8324 17.7693 30.0797C19.0535 30.2463 20.0205 30.6173 20.8563 31.1754L20.3891 32.1223C19.6852 31.5821 18.8292 31.2261 17.6143 31.0688C16.3985 30.9185 15.8904 31.0193 15.835 31.4286C15.7797 31.8379 16.3704 32.0661 17.7026 32.2958C19.8566 32.6648 20.9235 33.2894 20.7847 34.3161C20.6317 35.4468 19.338 35.8722 17.0142 35.5579C15.8557 35.4012 14.813 34.9635 14.0245 34.3694ZM20.6814 35.8491L20.7079 35.8103L20.8873 35.5803L24.1338 31.3714L24.3044 31.1544L25.4351 31.3073L27.5495 36.4602L27.6724 36.7523L27.6876 36.7968L26.3627 36.6176L26.3535 36.581L26.2849 36.4092L25.9311 35.4219L22.7262 34.9884L22.1581 35.7945L22.012 35.9867L21.9786 36.0246L20.6814 35.8491ZM23.3017 34.2327L25.5631 34.5386L24.7224 32.2422L23.3017 34.2327ZM28.9297 31.78L30.1367 31.9432L29.5793 36.0637L34.0328 36.6661L33.9014 37.6372L28.241 36.8716L28.9297 31.78ZM35.4194 32.6578L41.6001 33.4938L41.4687 34.465L36.495 33.7922L36.3552 34.8258L40.1566 35.34L40.0252 36.3111L36.2239 35.7969L36.069 36.9415L41.0983 37.6218L40.9669 38.5929L34.7307 37.7494L35.4194 32.6578Z" fill="white"/>
<path d="M16.5 74L16.5504 74.7334C16.6875 76.7263 18.2737 78.3125 20.2666 78.4496L21 78.5L20.2666 78.5504C18.2737 78.6875 16.6875 80.2737 16.5504 82.2666L16.5 83L16.4496 82.2666C16.3125 80.2737 14.7263 78.6875 12.7334 78.5504L12 78.5L12.7334 78.4496C14.7263 78.3125 16.3125 76.7263 16.4496 74.7334L16.5 74Z" fill="#0000F0"/>
<ellipse cx="37.5454" cy="59.315" rx="29.7512" ry="13.8497" transform="rotate(-8.96115 37.5454 59.315)" fill="#1B1B1F"/>
<path d="M21.1493 65.2398C18.9952 65.6399 17.4545 64.858 17.1478 63.2063C16.841 61.5545 17.9842 60.1959 20.1384 59.7959C22.2788 59.3984 23.8266 60.2573 24.1334 61.909C24.4401 63.5608 23.2897 64.8424 21.1493 65.2398ZM20.9781 64.3176C22.3614 64.0607 23.1021 63.2183 22.8945 62.1391C22.6918 61.0091 21.6815 60.3993 20.2981 60.6562C18.901 60.9157 18.1701 61.8488 18.3866 62.9762C18.5804 64.058 19.581 64.5771 20.9781 64.3176ZM24.9472 62.0427L24.4193 59.2003L25.5893 58.983L26.0648 61.5433C26.2411 62.493 26.943 63.1672 28.2438 62.9256C29.5446 62.6841 29.9576 61.8029 29.7812 60.8531L29.3058 58.2929L30.4689 58.0769L31.0036 60.918C31.2631 62.3151 30.4874 63.5058 28.4227 63.8892C26.358 64.2726 25.2066 63.4398 24.9472 62.0427ZM31.3258 58.9074L31.1469 57.9439L37.2722 56.8064L37.4511 57.7699L34.9872 58.2275L35.7464 62.3156L34.5489 62.538L33.7897 58.4499L31.3258 58.9074ZM37.9618 56.6783L39.1593 56.456L39.9184 60.5441L44.3369 59.7236L44.5158 60.6871L38.8998 61.73L37.9618 56.6783ZM44.4005 55.4827L50.5327 54.3439L50.7116 55.3075L45.777 56.2238L45.9674 57.2493L49.7389 56.5489L49.9178 57.5124L46.1463 58.2128L46.3572 59.3484L51.3469 58.4218L51.5258 59.3853L45.3386 60.5343L44.4005 55.4827ZM51.4217 55.1756L51.2428 54.2121L57.3681 53.0746L57.547 54.0381L55.0831 54.4957L55.8423 58.5838L54.6448 58.8062L53.8856 54.718L51.4217 55.1756Z" fill="#BDC2FF"/>
<path d="M46 12L46.8202 15.1798L50 16L46.8202 16.8202L46 20L45.1798 16.8202L42 16L45.1798 15.1798L46 12Z" fill="#1B1B1F"/>
</svg>
