<svg width="72" height="96" viewBox="0 0 72 96" fill="none" xmlns="http://www.w3.org/2000/svg">
<g clip-path="url(#clip0_62036_570351)">
<path fill-rule="evenodd" clip-rule="evenodd" d="M57.2114 58.0738L59.6334 58.49L55.1934 84.3256L52.7713 83.9094L53.0488 82.2946L51.0304 81.9478L50.7529 83.5625L3.11853 75.3761L7.55859 49.5405L55.193 57.7269L54.9154 59.3416L56.9338 59.6885L57.2114 58.0738Z" fill="#0000F0"/>
<path d="M13.3973 63.2641L12.5654 63.1211C12.566 62.5564 12.1833 62.1645 11.628 62.0691C10.8786 61.9403 10.2511 62.4249 10.0737 63.4575C9.89314 64.508 10.3304 65.1572 11.0708 65.2844C11.6172 65.3783 12.1065 65.1501 12.3055 64.6333L13.1367 64.7807C12.8597 65.6309 12.0167 66.207 10.935 66.0211C9.72844 65.8137 8.9955 64.7877 9.24847 63.3157C9.50221 61.8392 10.546 61.1231 11.7415 61.3286C12.7496 61.5018 13.4293 62.2226 13.3973 63.2641ZM18.0522 64.8287C17.7985 66.3051 16.7479 67.0201 15.5525 66.8147C14.3504 66.6081 13.6063 65.5801 13.8593 64.1081C14.113 62.6317 15.1568 61.9155 16.359 62.1221C17.5544 62.3276 18.3059 63.3522 18.0522 64.8287ZM17.2248 64.6865C17.4041 63.6427 16.977 62.9884 16.2321 62.8604C15.4849 62.732 14.8639 63.2061 14.6845 64.2499C14.5051 65.2937 14.9322 65.948 15.6794 66.0764C16.4243 66.2044 17.0454 65.7303 17.2248 64.6865ZM21.5542 66.0827L22.0556 63.1654L22.8786 63.3069L22.3657 66.291C22.1971 67.2723 21.3435 67.8168 20.2306 67.6255C19.1132 67.4335 18.4948 66.6361 18.6634 65.6547L19.1763 62.6706L19.9948 62.8113L19.4935 65.7285C19.3949 66.3017 19.7255 66.7833 20.3567 66.8917C20.9878 67.0002 21.4557 66.6558 21.5542 66.0827ZM23.7303 63.4533L25.4387 63.7469C26.4892 63.9274 26.939 64.6637 26.7891 65.5357C26.6385 66.4122 25.9631 66.9483 24.9082 66.767L24.0295 66.616L23.7638 68.1615L22.9453 68.0209L23.7303 63.4533ZM24.1456 65.9402L24.9151 66.0724C25.5306 66.1782 25.867 65.8778 25.9505 65.3916C26.0341 64.9054 25.8158 64.5189 25.1958 64.4123L24.4308 64.2809L24.1456 65.9402ZM31.3989 67.1224C31.1452 68.5989 30.0946 69.3138 28.8992 69.1084C27.6971 68.9018 26.953 67.8738 27.206 66.4018C27.4597 64.9254 28.5035 64.2093 29.7057 64.4159C30.9011 64.6213 31.6526 65.646 31.3989 67.1224ZM30.5715 66.9802C30.7508 65.9365 30.3237 65.2821 29.5788 65.1541C28.8316 65.0257 28.2106 65.4999 28.0312 66.5437C27.8518 67.5874 28.2789 68.2418 29.0261 68.3702C29.771 68.4982 30.3921 68.024 30.5715 66.9802ZM35.4558 65.4684L36.2721 65.6087L35.4871 70.1763L34.7578 70.051L33.1307 66.559L33.0927 66.5525L32.5565 69.6726L31.738 69.532L32.523 64.9644L33.2612 65.0912L34.8791 68.5839L34.9192 68.5908L35.4558 65.4684Z" fill="white"/>
<g clip-path="url(#clip1_62036_570351)">
<path fill-rule="evenodd" clip-rule="evenodd" d="M49.0622 71.6353L48.5608 70.9257L48.6648 70.3202L49.1587 71.0736L49.5132 69.0114L49.9168 69.0808L49.5624 71.143L50.2795 70.5977L50.1755 71.2032L49.4659 71.7047L49.2294 71.8718L49.0622 71.6353ZM50.8725 73.1932L50.4688 73.1239L47.643 72.6382L47.2394 72.5689L47.3087 72.1652L47.3781 71.7615L47.7818 71.8309L47.7124 72.2346L50.5382 72.7202L50.6076 72.3165L51.0112 72.3859L50.9419 72.7896L50.8725 73.1932Z" fill="white"/>
</g>
<path fill-rule="evenodd" clip-rule="evenodd" d="M58.972 18.9642L61.3587 18.3781L67.6099 43.8363L65.2232 44.4223L64.8325 42.8312L62.8436 43.3196L63.2343 44.9107L16.2961 56.4366L10.0449 30.9785L56.9831 19.4526L57.3738 21.0437L59.3627 20.5553L58.972 18.9642Z" fill="#1B1B1F"/>
<path d="M20.8802 41.2264L20.0605 41.4277C19.8354 40.9097 19.3281 40.7034 18.7808 40.8378C18.0424 41.0191 17.6608 41.714 17.9106 42.7315C18.1648 43.7666 18.825 44.1871 19.5546 44.0079C20.093 43.8757 20.4504 43.4711 20.4264 42.9177L21.2472 42.7208C21.3329 43.6109 20.7903 44.4758 19.7244 44.7375C18.5355 45.0295 17.4537 44.3817 17.0975 42.9312C16.7402 41.4763 17.4111 40.4028 18.589 40.1136C19.5824 39.8696 20.4935 40.2588 20.8802 41.2264ZM25.7726 40.801C26.1298 42.2559 25.4524 43.331 24.2744 43.6202C23.0899 43.9111 21.9971 43.266 21.6409 41.8155C21.2837 40.3607 21.9545 39.2872 23.139 38.9963C24.317 38.707 25.4153 39.3461 25.7726 40.801ZM24.9572 41.0012C24.7047 39.9727 24.0517 39.5435 23.3176 39.7237C22.5814 39.9045 22.2015 40.5873 22.454 41.6159C22.7066 42.6444 23.3596 43.0736 24.0958 42.8928C24.8298 42.7126 25.2098 42.0297 24.9572 41.0012ZM29.4839 40.5514L28.7781 37.6768L29.589 37.4777L30.3111 40.4182C30.5485 41.3852 29.9835 42.2253 28.8869 42.4946C27.7858 42.765 26.9003 42.281 26.6629 41.314L25.9409 38.3735L26.7474 38.1755L27.4533 41.0501C27.592 41.6149 28.0874 41.9243 28.7093 41.7716C29.3313 41.6189 29.6226 41.1162 29.4839 40.5514ZM30.4283 37.2716L32.1118 36.8582C33.1469 36.6041 33.8534 37.0993 34.0644 37.9586C34.2765 38.8223 33.8715 39.5835 32.832 39.8388L31.9661 40.0514L32.3401 41.5744L31.5335 41.7725L30.4283 37.2716ZM31.8026 39.3855L32.5608 39.1993C33.1674 39.0504 33.3557 38.6406 33.238 38.1615C33.1204 37.6824 32.7659 37.4153 32.1549 37.5653L31.4011 37.7504L31.8026 39.3855ZM38.9242 37.5715C39.2814 39.0264 38.604 40.1015 37.4261 40.3908C36.2415 40.6817 35.1487 40.0366 34.7925 38.5861C34.4353 37.1312 35.1061 36.0577 36.2907 35.7668C37.4686 35.4776 38.567 36.1167 38.9242 37.5715ZM38.1089 37.7717C37.8563 36.7432 37.2033 36.314 36.4693 36.4943C35.7331 36.6751 35.3531 37.3579 35.6057 38.3864C35.8582 39.4149 36.5112 39.8441 37.2475 39.6633C37.9815 39.4831 38.3614 38.8003 38.1089 37.7717ZM41.9825 34.4344L42.7868 34.2369L43.892 38.7378L43.1734 38.9143L40.2867 36.3631L40.2493 36.3723L41.0043 39.4469L40.1977 39.645L39.0925 35.1441L39.82 34.9654L42.6984 37.5209L42.738 37.5112L41.9825 34.4344Z" fill="white"/>
<g clip-path="url(#clip2_62036_570351)">
<path fill-rule="evenodd" clip-rule="evenodd" d="M56.9194 34.6519L56.1762 34.2018L56.0297 33.6051L56.7835 34.0984L56.2845 32.0663L56.6823 31.9686L57.1812 34.0008L57.6208 33.2144L57.7673 33.811L57.3172 34.5542L57.1671 34.802L56.9194 34.6519ZM59.2013 35.3569L58.8035 35.4546L56.0191 36.1383L55.6213 36.236L55.5236 35.8382L55.4259 35.4404L55.8237 35.3427L55.9214 35.7405L58.7058 35.0568L58.6082 34.659L59.006 34.5613L59.1036 34.9591L59.2013 35.3569Z" fill="white"/>
</g>
</g>
<defs>
<clipPath id="clip0_62036_570351">
<rect width="72" height="96" fill="white"/>
</clipPath>
<clipPath id="clip1_62036_570351">
<rect width="4.91519" height="4.91519" fill="white" transform="translate(47.3633 68.2261) rotate(9.75151)"/>
</clipPath>
<clipPath id="clip2_62036_570351">
<rect width="4.91519" height="4.91519" fill="white" transform="matrix(0.971148 -0.238471 0.238464 0.971153 53.998 32.2056)"/>
</clipPath>
</defs>
</svg>
